<?xml version="1.0" encoding="UTF-8"?>
<!DOCTYPE svg PUBLIC "-//W3C//DTD SVG 1.1//EN" "http://www.w3.org/Graphics/SVG/1.1/DTD/svg11.dtd">
<svg version="1.1" id="Layer_1" xmlns="http://www.w3.org/2000/svg" xmlns:xlink="http://www.w3.org/1999/xlink" x="0px" y="0px" width="32px" height="32px" viewBox="0 0 32 32" enable-background="new 0 0 32 32" xml:space="preserve">
  <g id="icon">
    <rect x="26.5" y="17.5" width="4" height="7" fill="#F7DA8E" stroke="#ED8730" stroke-width="1" stroke-linecap="round" stroke-miterlimit="1"/>
    <rect x="26.5" y="10.5" width="4" height="7" fill="#92CBEE" stroke="#0964B0" stroke-width="1" stroke-linecap="round" stroke-miterlimit="1"/>
    <rect x="26.5" y="3.5" width="4" height="7" fill="#ACD8B1" stroke="#0BA04A" stroke-width="1" stroke-linecap="round" stroke-miterlimit="1"/>
    <path d="M26.5,30.5H2.5V1.5h24V30.5z" fill="#FFFFFF" stroke="#383838" stroke-width="1" stroke-miterlimit="1"/>
    <path d="M21.2,13.312c0,1.443,-0.441,2.781,-1.194,3.883c-1.21,1.77,-5.506,7.449,-5.506,7.449s-4.267,-5.663,-5.48,-7.412c-0.769,-1.109,-1.22,-2.461,-1.22,-3.92C7.8,9.55,10.8,6.5,14.5,6.5S21.2,9.55,21.2,13.312z" fill="#FFFFFF" stroke="#383838" stroke-width="1" stroke-miterlimit="1"/>
    <ellipse cx="14.5" cy="13.111" rx="2.571" ry="2.58" fill="none" stroke="#787979" stroke-width="1" stroke-miterlimit="1"/>
  </g>
</svg>
