<?xml version="1.0" encoding="UTF-8"?>
<!DOCTYPE svg PUBLIC "-//W3C//DTD SVG 1.1//EN" "http://www.w3.org/Graphics/SVG/1.1/DTD/svg11.dtd">
<svg version="1.1" id="Layer_1" xmlns="http://www.w3.org/2000/svg" xmlns:xlink="http://www.w3.org/1999/xlink" x="0px" y="0px" width="32px" height="32px" viewBox="0 0 32 32" enable-background="new 0 0 32 32" xml:space="preserve">
  <g id="icon">
    <rect x="5.5" y="9.5" width="21.1" height="16" fill="#FFFFFF"/>
    <rect x="12.5" y="15.5" width="7" height="11.1" fill="#FFFFFF" stroke="#ED8730" stroke-width="1" stroke-miterlimit="1"/>
    <rect x="3.5" y="26.5" width="25" height="2" fill="#FFFFFF" stroke="#383838" stroke-width="1" stroke-miterlimit="1"/>
    <rect x="1.5" y="28.5" width="29" height="2" fill="#FFFFFF" stroke="#383838" stroke-width="1" stroke-miterlimit="1"/>
    <path d="M16,1.7l14.5,7.913V10.5H1.5v-0.887L16,1.7z" fill="#FFFFFF" stroke="#383838" stroke-width="1" stroke-miterlimit="1"/>
    <circle cx="16" cy="7" r="1.5" fill="none" stroke="#787979" stroke-width="1" stroke-miterlimit="1"/>
    <path d="M8.95,12.5h-3.9c-0.304,0,-0.55,-0.246,-0.55,-0.55V10.5h5v1.45C9.5,12.254,9.254,12.5,8.95,12.5zM8.95,24.5h-3.9c-0.304,0,-0.55,0.246,-0.55,0.55V26.5h5v-1.45C9.5,24.746,9.254,24.5,8.95,24.5zM8.5,12.5H5.5v12h3V12.5z" fill="#FFFFFF" stroke="#383838" stroke-width="1" stroke-miterlimit="1"/>
    <path d="M26.95,12.5h-3.9c-0.304,0,-0.55,-0.246,-0.55,-0.55V10.5h5v1.45C27.5,12.254,27.254,12.5,26.95,12.5zM26.95,24.5h-3.9c-0.304,0,-0.55,0.246,-0.55,0.55V26.5h5v-1.45C27.5,24.746,27.254,24.5,26.95,24.5zM26.5,12.5h-3v12h3V12.5z" fill="#FFFFFF" stroke="#383838" stroke-width="1" stroke-miterlimit="1"/>
  </g>
</svg>
