<?xml version="1.0" encoding="UTF-8"?>
<!DOCTYPE svg PUBLIC "-//W3C//DTD SVG 1.1//EN" "http://www.w3.org/Graphics/SVG/1.1/DTD/svg11.dtd">
<svg version="1.1" id="Layer_1" xmlns="http://www.w3.org/2000/svg" xmlns:xlink="http://www.w3.org/1999/xlink" x="0px" y="0px" width="32px" height="32px" viewBox="0 0 32 32" enable-background="new 0 0 32 32" xml:space="preserve">
  <g id="main">
    <g id="icon">
      <path d="M4.575,3.181L2.5,1.156L2.5,28.84L4.575,26.82L6.65,29.24L8.725,26.82L10.8,29.24L12.88,26.82L15.05,29.24L16.18,27.92L16.13,27.82L15.79,26.77L15.58,25.65L15.5,24.5L15.55,23.58L15.68,22.69L15.91,21.83L16.21,21L16.59,20.21L17.04,19.47L17.56,18.78L18.14,18.14L18.78,17.56L19.47,17.04L20.21,16.59L21,16.21L21.83,15.91L22.69,15.68L23.58,15.55L24.5,15.5L25.65,15.58L26.77,15.79L27.5,16.03L27.5,1.156L25.43,3.181L23.35,0.7563L21.28,3.181L19.2,0.7563L17.13,3.181L15.05,0.7563L12.88,3.181L10.8,0.7563L8.725,3.181L6.65,0.7563z" fill="#FFFFFF"/>
      <path d="M6.269,0.4313L4.541,2.45L2.85,0.7969L2.225,0.1875L2,0.2813L2,1.156L2,28.84L2,29.72L2.225,29.81L2.85,29.2L4.541,27.55L6.269,29.57L6.65,30.01L7.031,29.57L8.725,27.59L10.42,29.57L10.8,30.01L11.18,29.57L12.88,27.58L14.68,29.58L15.06,30L15.43,29.57L16.42,28.42L16.13,27.82L15.99,27.38L15.04,28.48L13.25,26.48L12.87,26.06L12.49,26.49L10.8,28.48L9.106,26.49L8.725,26.05L8.344,26.49L6.65,28.48L4.956,26.49L4.609,26.09L4.225,26.46L3,27.66L3,2.344L4.225,3.541L4.609,3.913L4.956,3.506L6.65,1.525L8.344,3.506L8.725,3.95L9.106,3.506L10.8,1.525L12.49,3.506L12.87,3.941L13.25,3.516L15.04,1.516L16.74,3.506L17.13,3.95L17.51,3.506L19.2,1.525L20.89,3.506L21.28,3.95L21.66,3.506L23.35,1.525L25.04,3.506L25.39,3.913L25.78,3.541L27,2.344L27,15.87L27.82,16.13L28,16.22L28,1.156L28,0.2813L27.78,0.1875L27.15,0.7969L25.46,2.45L23.73,0.4313L23.36,0L23.34,0L22.97,0.4313L21.28,2.413L19.58,0.4313L19.21,0L19.19,0L18.82,0.4313L17.13,2.413L15.43,0.4313L15.06,0L15.06,0L14.68,0.4219L12.88,2.422L11.18,0.4313L10.81,0L10.79,0L10.42,0.4313L8.725,2.413L7.031,0.4313L6.659,0L6.641,0z" fill="#383838"/>
      <path d="M5.5,7.5L24.5,7.5L24.5,5.5L5.5,5.5z" fill="#C8C6C4"/>
      <path d="M5,5.5L5,7.5L5,8L5.5,8L24.5,8L25,8L25,7.5L25,5.5L25,5L24.5,5L5.5,5L5,5M24,6L24,7L6,7L6,6z" fill="#383838"/>
      <path d="M6,11L16.5,11L16.5,10L6,10M6,13L13.4,13L13.4,12L6,12M6,15L16.5,15L16.5,14L6,14M6,17L13.4,17L13.4,16L6,16M6,19L16.5,19L16.5,18L6,18M6,21L13.4,21L13.4,20L6,20z" fill="#383838"/>
      <path d="M19,11L24,11L24,10L19,10M19,13L24,13L24,12L19,12M19,15L24,15L24,14L19,14M19,17L19.53,17L20.21,16.59L21,16.21L21.57,16L19,16z" fill="#787979"/>
    </g>
    <g id="overlay">
      <circle cx="24.5" cy="24.5" r="7" fill="#FFFFFF" stroke="#17AB4F" stroke-width="1" stroke-miterlimit="1"/>
      <path d="M20.25,24.75l3,3L29.2,21.8" fill="none" stroke="#17AB4F" stroke-width="1.1" stroke-miterlimit="1"/>
    </g>
  </g>
</svg>
