<?xml version="1.0" encoding="UTF-8"?>
<!DOCTYPE svg PUBLIC "-//W3C//DTD SVG 1.1//EN" "http://www.w3.org/Graphics/SVG/1.1/DTD/svg11.dtd">
<svg version="1.1" id="Layer_1" xmlns="http://www.w3.org/2000/svg" xmlns:xlink="http://www.w3.org/1999/xlink" x="0px" y="0px" width="32px" height="32px" viewBox="0 0 32 32" enable-background="new 0 0 32 32" xml:space="preserve">
  <g id="main">
    <g id="icon">
      <path d="M3.294,28.88L3.275,29.02L3.309,29.14L3.469,29.35L3.709,29.48L5.069,29.5L6.303,29.48L6.509,29.45L6.628,29.39L6.747,29.28L8.056,26.78L9.972,23L6.25,23z" fill="#FFFFFF"/>
      <path d="M2.866,28.63L2.838,28.68L2.775,29.01L2.856,29.35L2.975,29.55L3.141,29.72L3.341,29.86L3.569,29.95L3.616,29.97L3.663,29.97L5.069,30L6.394,29.98L6.678,29.92L6.897,29.81L7.116,29.62L7.156,29.57L8.513,26.98L10.53,23L9.413,23L6.356,28.97L6.347,28.98L5.069,29L3.819,28.98L3.809,28.98L6.809,23L5.691,23z" fill="#228BCB"/>
      <path d="M4.084,2.541L3.713,2.656L3.375,2.838L3.081,3.081L2.838,3.375L2.656,3.713L2.541,4.084L2.5,4.484L2.5,21.5L16.03,21.5L16.21,21L16.59,20.21L17.04,19.47L17.56,18.78L18.14,18.14L18.78,17.56L19.47,17.04L20.21,16.59L21,16.21L21.83,15.91L22.69,15.68L23.58,15.55L24.5,15.5L25.65,15.58L26.77,15.79L27.5,16.03L27.5,4.484L27.46,4.084L27.34,3.713L27.16,3.375L26.92,3.081L26.63,2.838L26.29,2.656L25.92,2.541L25.52,2.5L4.484,2.5z" fill="#FFFFFF"/>
      <path d="M3.984,2.05L3.519,2.197L3.097,2.425L2.728,2.728L2.425,3.097L2.197,3.519L2.05,3.984L2,4.484L2,21L0,21L0,22L2,22L15.86,22L15.91,21.83L16.21,21L3,21L3,4.484L3.031,4.184L3.116,3.906L3.253,3.653L3.434,3.434L3.653,3.253L3.906,3.116L4.184,3.031L4.484,3L25.52,3L25.82,3.031L26.09,3.116L26.34,3.253L26.57,3.434L26.75,3.653L26.88,3.906L26.97,4.184L27,4.484L27,15.87L27.82,16.13L28,16.22L28,4.484L27.95,3.984L27.8,3.519L27.58,3.097L27.27,2.728L26.9,2.425L26.48,2.197L26.02,2.05L25.52,2L4.484,2z" fill="#383838"/>
    </g>
    <g id="overlay">
      <circle cx="24.5" cy="24.5" r="7" fill="#FFFFFF" stroke="#17AB4F" stroke-width="1" stroke-miterlimit="1"/>
      <path d="M24.5,19.44V29.56M19.44,24.5H29.56" fill="#FFFFFF" stroke="#17AB4F" stroke-width="1" stroke-miterlimit="1"/>
    </g>
  </g>
</svg>
