<?xml version="1.0" encoding="UTF-8"?>
<!DOCTYPE svg PUBLIC "-//W3C//DTD SVG 1.1//EN" "http://www.w3.org/Graphics/SVG/1.1/DTD/svg11.dtd">
<svg version="1.1" id="Layer_1" xmlns="http://www.w3.org/2000/svg" xmlns:xlink="http://www.w3.org/1999/xlink" x="0px" y="0px" width="32px" height="32px" viewBox="0 0 32 32" enable-background="new 0 0 32 32" xml:space="preserve">
  <g id="icon">
    <path d="M27.691,29.891c0.002,0.007,0.01,0.036,0.012,0.111c-0.003,0.201,-0.186,0.4,-0.432,0.472c-0.121,0.011,-0.598,0.026,-1.36,0.026c-1.379,0,-1.395,-0.01,-1.556,-0.11c-0.027,-0.017,-0.088,-0.07,-0.121,-0.107c-0.164,-0.236,-2.246,-4.346,-3.224,-6.283h3.723C25.671,25.874,27.627,29.781,27.691,29.891zM7.249,24c-0.923,1.85,-2.828,5.665,-2.956,5.881c-0.042,0.094,-0.015,0.193,0.015,0.26c0.07,0.154,0.222,0.28,0.401,0.333c0.122,0.011,0.599,0.026,1.36,0.026c1.378,0,1.395,-0.01,1.558,-0.111c0.026,-0.016,0.087,-0.07,0.12,-0.107c0.168,-0.239,2.247,-4.346,3.225,-6.283H7.249z" fill="#FFFFFF"/>
    <path d="M11.532,24c-1.076,2.134,-3.18,6.291,-3.376,6.571l-0.039,0.049c-0.053,0.058,-0.148,0.145,-0.22,0.191c-0.307,0.19,-0.422,0.19,-1.827,0.19c-0.758,0,-1.26,-0.015,-1.406,-0.028l-0.049,-0.005l-0.047,-0.014c-0.317,-0.095,-0.584,-0.321,-0.713,-0.605c-0.103,-0.226,-0.109,-0.465,-0.016,-0.672l0.026,-0.051c0.117,-0.202,1.588,-3.14,2.827,-5.625h1.117c-0.812,1.628,-2.574,5.158,-2.999,5.976c0.003,0.002,0.005,0.003,0.008,0.004c0.16,0.008,0.574,0.02,1.252,0.02c0.564,0,1.147,0,1.277,-0.025c0.003,-0.002,0.006,-0.005,0.009,-0.008c0.236,-0.402,1.775,-3.428,3.057,-5.967H11.532zM28.168,29.741l-0.013,-0.046l-0.027,-0.048c-0.084,-0.155,-1.574,-3.128,-2.835,-5.647h-1.118c0.919,1.837,2.598,5.19,2.998,5.976c-0.002,0.001,-0.004,0.002,-0.006,0.003c-0.157,0.008,-0.571,0.02,-1.255,0.02c-0.537,0,-1.144,0,-1.276,-0.025c-0.002,-0.002,-0.005,-0.004,-0.008,-0.007c-0.249,-0.429,-1.78,-3.441,-3.057,-5.969h-1.12c1.076,2.134,3.182,6.295,3.374,6.569l0.042,0.052c0.044,0.048,0.14,0.139,0.227,0.194c0.298,0.184,0.413,0.184,1.819,0.184c0.761,0,1.263,-0.015,1.407,-0.028l0.048,-0.004l0.046,-0.013c0.46,-0.135,0.785,-0.523,0.791,-0.945l0,-0.01l0,-0.01C28.2,29.887,28.189,29.808,28.168,29.741z" fill="#228BCB"/>
    <path d="M28.5,22.5H3.5V5.483C3.5,4.388,4.388,3.5,5.483,3.5h21.033C27.612,3.5,28.5,4.388,28.5,5.483V22.5z" fill="#FFFFFF"/>
    <path d="M29,22V5.483C29,4.114,27.886,3,26.517,3H5.483C4.114,3,3,4.114,3,5.483V22H1v1h2h26h2v-1H29zM4,22V5.483C4,4.665,4.665,4,5.483,4h21.033c0.818,0,1.483,0.665,1.483,1.483V22H4z" fill="#383838"/>
    <polygon points="9,16.9 8,16.9 8,9.53 7.123,10.388 6.423,9.673 8.237,7.9 9,7.9" fill="#787979" stroke-linejoin="miter"/>
    <path d="M17.4,17h-5.442l0.026,-1.334c0.011,-0.575,0.271,-1.13,0.712,-1.523l3.351,-2.983c0.152,-0.202,0.286,-0.44,0.286,-0.789c0,-0.785,-0.749,-1.423,-1.67,-1.423c-0.9,0,-1.633,0.6,-1.669,1.366l-0.999,-0.047c0.061,-1.3,1.232,-2.319,2.668,-2.319c1.472,0,2.67,1.087,2.67,2.423c0,0.683,-0.298,1.147,-0.522,1.437l-0.028,0.037l-3.421,3.046c-0.238,0.211,-0.372,0.494,-0.378,0.796l-0.006,0.314H17.4V17z" fill="#787979"/>
    <path d="M22.261,17.026c-2.419,0,-2.705,-1.82,-2.734,-2.378l0.999,-0.054c0.035,0.653,0.365,1.432,1.736,1.432c1.437,0,1.739,-0.835,1.739,-1.535c0,-0.728,-0.69,-1.311,-1.762,-1.491H21.9v-1h0.337c0.676,-0.114,1.763,-0.459,1.763,-1.496c0,-0.7,-0.302,-1.535,-1.739,-1.535c-1.371,0,-1.701,0.779,-1.736,1.432l-0.999,-0.054c0.03,-0.558,0.316,-2.378,2.734,-2.378c2.019,0,2.739,1.309,2.739,2.535c0,0.856,-0.433,1.554,-1.204,2.004c0.759,0.458,1.204,1.161,1.204,1.983C25,15.717,24.281,17.026,22.261,17.026z" fill="#787979"/>
  </g>
</svg>
