<?xml version="1.0" encoding="UTF-8"?>
<!DOCTYPE svg PUBLIC "-//W3C//DTD SVG 1.1//EN" "http://www.w3.org/Graphics/SVG/1.1/DTD/svg11.dtd">
<svg version="1.1" id="Layer_1" xmlns="http://www.w3.org/2000/svg" xmlns:xlink="http://www.w3.org/1999/xlink" x="0px" y="0px" width="32px" height="32px" viewBox="0 0 32 32" enable-background="new 0 0 32 32" xml:space="preserve">
  <g id="main">
    <g id="icon">
      <path d="M0.5,27.5L30.5,27.5L30.5,24L21.42,24L21.4,24.01L12.95,15.45L21.29,7L21.52,7L30.5,7L30.5,4.5L0.5,4.5z" fill="#FFFFFF"/>
      <path d="M0,4.5L0,27.5L0,28L0.5,28L30.5,28L31,28L31,27.5L31,24L30,24L30,27L1,27L1,5L30,5L30,7L31,7L31,4.5L31,4L30.5,4L0.5,4L0,4z" fill="#383838"/>
      <path d="M2.5,25.5L13,25.5L13.51,25.53L13.98,25.6L14.41,25.73L14.78,25.93L15.08,26.18L15.31,26.51L15.45,26.92L15.5,27.4L15.5,18.03L12.95,15.45L15.5,12.87L15.5,5L15.45,4.497L15.3,4.028L15.07,3.603L14.77,3.231L14.4,2.928L13.97,2.697L13.5,2.55L13,2.5L2.5,2.5z" fill="#FFFFFF"/>
      <path d="M2,2.5L2,25.5L2,26L2.5,26L12.99,26L13.46,26.02L13.87,26.09L14.22,26.2L14.49,26.34L14.7,26.52L14.86,26.74L14.96,27.03L15,27.45L15.48,32L16,32L16,27.4L16,18.54L15,17.53L15,25.48L14.64,25.29L14.6,25.27L14.55,25.25L14.13,25.12L14.1,25.11L14.06,25.11L13.59,25.03L13.56,25.03L13.53,25.03L13.03,25L13.01,25L13,25L3,25L3,3L12.98,3L13.4,3.044L13.78,3.159L14.12,3.344L14.41,3.588L14.66,3.884L14.84,4.222L14.96,4.597L15,5.025L15,13.37L16,12.36L16,5L16,4.975L16,4.95L15.95,4.447L15.94,4.397L15.93,4.347L15.78,3.878L15.77,3.831L15.74,3.788L15.51,3.363L15.49,3.322L15.46,3.284L15.15,2.913L15.12,2.878L15.09,2.847L14.72,2.541L14.68,2.509L14.64,2.488L14.21,2.256L14.17,2.234L14.12,2.219L13.65,2.072L13.6,2.059L13.55,2.053L13.05,2.003L13.03,2L13,2L2.5,2L2,2z" fill="#383838"/>
      <path d="M17.5,2.55L17.03,2.697L16.6,2.928L16.23,3.231L15.93,3.603L15.7,4.028L15.55,4.497L15.5,5L15.5,12.87L21.29,7L21.52,7L28.5,7L28.5,2.5L18,2.5M15.5,27.4L15.55,26.92L15.69,26.51L15.92,26.18L16.23,25.93L16.59,25.73L17.02,25.6L17.49,25.53L18,25.5L28.5,25.5L28.5,24L21.42,24L21.4,24.01L15.5,18.03z" fill="#FFFFFF"/>
      <path d="M17.95,2.003L17.45,2.053L17.4,2.059L17.35,2.072L16.88,2.219L16.83,2.234L16.79,2.256L16.36,2.488L16.32,2.509L16.28,2.541L15.91,2.847L15.88,2.878L15.85,2.913L15.54,3.284L15.51,3.322L15.49,3.363L15.26,3.788L15.23,3.831L15.22,3.878L15.07,4.347L15.06,4.397L15.05,4.447L15,4.95L15,4.975L15,5L15,13.37L16,12.36L16,5.025L16.04,4.597L16.16,4.222L16.34,3.884L16.59,3.588L16.88,3.344L17.22,3.159L17.6,3.044L18.03,3L28,3L28,7L29,7L29,2.5L29,2L28.5,2L18,2L17.98,2M15,27.4L15,32L15.53,32L16,27.45L16.04,27.03L16.14,26.74L16.3,26.52L16.51,26.34L16.78,26.2L17.13,26.09L17.54,26.02L18.01,26L28.5,26L29,26L29,25.5L29,24L28,24L28,25L18,25L17.99,25L17.98,25L17.47,25.03L17.44,25.03L17.41,25.03L16.94,25.11L16.9,25.11L16.87,25.12L16.45,25.25L16.4,25.27L16.36,25.29L16,25.48L16,18.54L15,17.53z" fill="#383838"/>
      <path d="M5,7L13,7L13,6L5,6M18,7L21.29,7L21.52,7L26,7L26,6L18,6M5,10L13,10L13,9L5,9M18,10L18.33,10L19.32,9L18,9M5,13L13,13L13,12L5,12M5,16L13,16L13,15.5L12.95,15.45L13,15.4L13,15L5,15M5,19L13,19L13,18L5,18M5,22L13,22L13,21L5,21M18,22L19.41,22L18.43,21L18,21z" fill="#228BCB"/>
    </g>
    <g id="overlay">
      <path d="M21.842,21.471L15.9,15.45l5.942,-6.021M32,15.5H16" fill="none" stroke="#17AB4F" stroke-width="1.2" stroke-miterlimit="1"/>
    </g>
  </g>
</svg>
