<?xml version="1.0" encoding="UTF-8"?>
<!DOCTYPE svg PUBLIC "-//W3C//DTD SVG 1.1//EN" "http://www.w3.org/Graphics/SVG/1.1/DTD/svg11.dtd">
<svg version="1.1" id="Layer_1" xmlns="http://www.w3.org/2000/svg" xmlns:xlink="http://www.w3.org/1999/xlink" x="0px" y="0px" width="16px" height="16px" viewBox="0 0 16 16" enable-background="new 0 0 16 16" xml:space="preserve">
  <g id="main">
    <g id="icon">
      <path d="M0.5,13L0.5313,13.3L0.6188,13.58L0.7563,13.84L0.9406,14.06L1.163,14.24L1.416,14.38L1.697,14.47L2,14.5L6.663,14.5L6.4,14.04L6.144,13.45L5.956,12.83L5.841,12.18L5.8,11.5L5.828,10.92L5.916,10.35L6.056,9.806L6.25,9.284L6.488,8.784L6.775,8.316L7.103,7.875L7.472,7.472L7.875,7.103L8.316,6.775L8.784,6.488L9.284,6.25L9.806,6.056L10.35,5.916L10.92,5.828L11.5,5.8L12.18,5.841L12.5,5.897L12.5,2.5L1.416,2.5L1.188,2.469L0.9938,2.384L0.7094,2.125L0.55,1.869L0.5,1.75z" fill="#FFFEFF"/>
      <path d="M1.134,0.5781L0.8188,0.7938L0.6031,1.109L0.525,1.5L0.6031,1.891L0.8188,2.206L1.134,2.422L1.525,2.5L12.78,2.5L12.35,2.422L11.94,2.206L11.64,1.891L11.56,1.7L11.53,1.5L11.56,1.3L11.64,1.109L11.96,0.7938L12.42,0.5781L12.98,0.5L1.525,0.5z" fill="#FFFFFF"/>
      <path d="M1.425,0.009375L1.038,0.0875L0.9375,0.1094L0.8563,0.1656L0.5375,0.3781L0.4594,0.4344L0.4031,0.5125L0.1906,0.8313L0.1344,0.9125L0.1125,1.013L0.03438,1.4L0.01563,1.5L0.03438,1.6L0.1125,1.988L0.1344,2.088L0.1906,2.169L0.4031,2.488L0.4594,2.566L0.5375,2.622L0.8563,2.834L0.9375,2.891L1.038,2.913L1.425,2.991L1.475,3L1.525,3L12.78,3L13.73,3L13.81,2.181L12.87,2.009L12.51,1.944L12.25,1.803L12.06,1.606L12.04,1.556L12.03,1.5L12.04,1.444L12.06,1.4L12.25,1.209L12.57,1.063L13.05,0.9938L14,0.8594L13.94,0L12.98,0L1.525,0L1.475,0M11.14,1L11.1,1.088L11.07,1.153L11.06,1.225L11.03,1.425L11.02,1.5L11.03,1.575L11.06,1.778L11.07,1.847L11.1,1.913L11.14,2L1.575,2L1.331,1.95L1.178,1.847L1.075,1.694L1.034,1.5L1.075,1.306L1.178,1.153L1.331,1.05L1.575,1z" fill="#383838"/>
      <path d="M0,1.7L0,13L0,13.03L0.003125,13.05L0.03438,13.35L0.0375,13.4L0.05313,13.45L0.1406,13.73L0.1563,13.78L0.1781,13.82L0.3156,14.08L0.3406,14.12L0.3719,14.16L0.5531,14.38L0.5844,14.42L0.6219,14.45L0.8438,14.63L0.8813,14.66L0.9219,14.68L1.178,14.82L1.222,14.84L1.269,14.86L1.55,14.95L1.597,14.96L1.647,14.97L1.95,15L1.975,15L2,15L7.013,15L6.719,14.6L6.4,14.04L6.381,14L2.025,14L1.797,13.98L1.613,13.92L1.444,13.83L1.294,13.71L1.172,13.56L1.081,13.39L1.022,13.2L1,12.98L1,1.7L1,1.2L0,1.2M12,2.5L12,5.831L12.18,5.841L12.83,5.956L13,6.009L13,2.5L13,2L12,2z" fill="#383838"/>
      <path d="M3.5,8.5L6.663,8.5L6.775,8.316L7.103,7.875L7.472,7.472L7.875,7.103L8.316,6.775L8.784,6.488L9.284,6.25L9.5,6.169L9.5,5.5L3.5,5.5z" fill="#FFFFFF"/>
      <path d="M3,5.5L3,8.5L3,9L3.5,9L6.384,9L6.488,8.784L6.775,8.316L7.009,8L4,8L4,6L9,6L9,6.384L9.284,6.25L9.806,6.056L10,6.006L10,5.5L10,5L9.5,5L3.5,5L3,5z" fill="#228BCB"/>
    </g>
    <g id="overlay">
      <circle cx="11.5" cy="11.5" r="4" fill="#FFFFFF" stroke="#228BCB" stroke-width="1" stroke-miterlimit="1"/>
      <path d="M11.5,10.7v3.3M11.5,9v1" fill="#FFFFFF" stroke="#228BCB" stroke-width="1" stroke-miterlimit="1"/>
    </g>
  </g>
</svg>
