<?xml version="1.0" encoding="UTF-8"?>
<!DOCTYPE svg PUBLIC "-//W3C//DTD SVG 1.1//EN" "http://www.w3.org/Graphics/SVG/1.1/DTD/svg11.dtd">
<svg version="1.1" id="Layer_1" xmlns="http://www.w3.org/2000/svg" xmlns:xlink="http://www.w3.org/1999/xlink" x="0px" y="0px" width="32px" height="32px" viewBox="0 0 32 32" enable-background="new 0 0 32 32" xml:space="preserve">
  <g id="main">
    <g id="icon">
      <path d="M2.5,27L2.55,27.5L2.697,27.97L2.928,28.4L3.231,28.77L3.603,29.07L4.028,29.3L4.497,29.45L5,29.5L17.03,29.5L16.61,28.82L16.13,27.82L15.79,26.77L15.58,25.65L15.5,24.5L15.55,23.58L15.68,22.69L15.91,21.83L16.21,21L16.59,20.21L17.04,19.47L17.56,18.78L18.14,18.14L18.78,17.56L19.47,17.04L20.21,16.59L21,16.21L21.83,15.91L22.69,15.68L23.58,15.55L24.5,15.5L25.65,15.58L26.5,15.74L26.5,4.5L4.334,4.5L3.872,4.434L3.484,4.266L3.166,4.025L2.916,3.75L2.6,3.234L2.5,3z" fill="#FFFEFF"/>
      <path d="M4.097,0.5406L3.722,0.6563L3.381,0.8406L3.084,1.084L2.841,1.381L2.656,1.722L2.541,2.097L2.5,2.5L2.541,2.903L2.656,3.278L2.841,3.619L3.084,3.916L3.381,4.159L3.722,4.344L4.097,4.459L4.5,4.5L27,4.5L26.58,4.459L26.15,4.344L25.73,4.159L25.34,3.916L25,3.619L24.74,3.278L24.56,2.903L24.5,2.5L24.56,2.097L24.74,1.722L25,1.381L25.34,1.084L25.73,0.8406L26.15,0.6563L26.58,0.5406L27,0.5L4.5,0.5z" fill="#FFFFFF"/>
      <path d="M4.45,0.003125L4.047,0.04375L3.997,0.04688L3.95,0.0625L3.572,0.1781L3.525,0.1938L3.484,0.2188L3.144,0.4031L3.1,0.425L3.063,0.4563L2.769,0.7L2.731,0.7313L2.7,0.7688L2.456,1.063L2.425,1.1L2.403,1.144L2.219,1.484L2.194,1.525L2.178,1.572L2.063,1.95L2.047,1.997L2.044,2.047L2.003,2.45L1.997,2.5L2.003,2.55L2.044,2.953L2.047,3.003L2.063,3.05L2.178,3.428L2.194,3.475L2.219,3.516L2.403,3.856L2.425,3.9L2.456,3.938L2.7,4.231L2.731,4.269L2.769,4.3L3.063,4.544L3.1,4.575L3.144,4.597L3.484,4.781L3.525,4.806L3.572,4.822L3.95,4.938L3.997,4.953L4.047,4.956L4.45,4.997L4.475,5L4.5,5L27,5L27.98,5L28.02,4.097L27.05,4.003L27,4L26.67,3.966L26.31,3.869L25.96,3.716L25.64,3.513L25.37,3.275L25.17,3.016L25.05,2.756L25.01,2.5L25.05,2.244L25.17,1.984L25.37,1.725L25.64,1.488L25.96,1.284L26.31,1.131L26.67,1.034L27,1L27.05,0.9969L28.02,0.9031L27.98,0L27,0L4.5,0L4.475,0M24.68,1L24.67,1.006L24.63,1.038L24.61,1.075L24.34,1.413L24.31,1.459L24.28,1.513L24.11,1.888L24.08,1.95L24.07,2.022L24.01,2.425L23.99,2.5L24.01,2.575L24.07,2.978L24.08,3.05L24.11,3.113L24.28,3.488L24.31,3.541L24.34,3.588L24.61,3.925L24.63,3.963L24.67,3.994L24.68,4L4.525,4L4.197,3.966L3.916,3.881L3.663,3.741L3.441,3.559L3.259,3.338L3.119,3.084L3.034,2.803L3.003,2.5L3.034,2.197L3.119,1.916L3.259,1.663L3.441,1.441L3.663,1.259L3.916,1.119L4.197,1.034L4.525,1z" fill="#383838"/>
      <path d="M2,2.5L2,27L2,27.03L2.003,27.05L2.053,27.55L2.059,27.6L2.072,27.65L2.219,28.12L2.234,28.17L2.256,28.21L2.488,28.64L2.509,28.68L2.541,28.72L2.847,29.09L2.878,29.12L2.913,29.15L3.284,29.46L3.322,29.49L3.363,29.51L3.788,29.74L3.831,29.77L3.878,29.78L4.347,29.93L4.397,29.94L4.447,29.95L4.95,30L4.975,30L5,30L17.4,30L17.19,29.74L16.72,29L5.025,29L4.597,28.96L4.222,28.84L3.884,28.66L3.588,28.41L3.344,28.12L3.159,27.78L3.044,27.4L3,26.98L3,2.5L3,2L2,2M26,4.5L26,15.64L26.77,15.79L27,15.87L27,4.5L27,4L26,4z" fill="#383838"/>
      <path d="M8.5,15.5L20.5,15.5L20.5,9.5L8.5,9.5z" fill="#FFFFFF"/>
      <path d="M8,9.5L8,15.5L8,16L8.5,16L20.5,16L21,16L21,15.5L21,9.5L21,9L20.5,9L8.5,9L8,9M20,10L20,15L9,15L9,10z" fill="#228BCB"/>
    </g>
    <g id="overlay">
      <circle cx="24.5" cy="24.5" r="7" fill="#FFFFFF" stroke="#228BCB" stroke-width="1" stroke-miterlimit="1"/>
      <path d="M24.5,23v6M24.5,20v1.5" fill="#FFFFFF" stroke="#228BCB" stroke-width="1.2" stroke-miterlimit="1"/>
    </g>
  </g>
</svg>
