<?xml version="1.0" encoding="UTF-8"?>
<!DOCTYPE svg PUBLIC "-//W3C//DTD SVG 1.1//EN" "http://www.w3.org/Graphics/SVG/1.1/DTD/svg11.dtd">
<svg version="1.1" id="Layer_1" xmlns="http://www.w3.org/2000/svg" xmlns:xlink="http://www.w3.org/1999/xlink" x="0px" y="0px" width="32px" height="32px" viewBox="0 0 32 32" enable-background="new 0 0 32 32" xml:space="preserve">
  <g id="icon">
    <rect x="1.5" y="5.5" width="30" height="23" fill="#FFFFFF" stroke="#383838" stroke-width="1" stroke-miterlimit="5"/>
    <path d="M16.5,28.4c0,-1.4,-1.1,-1.9,-2.5,-1.9s-10.5,0,-10.5,0V3.5h10.5c1.381,0,2.5,1.119,2.5,2.5C16.5,6,16.5,30.2,16.5,28.4z" fill="#FFFFFF" stroke="#383838" stroke-width="1" stroke-miterlimit="5"/>
    <path d="M16.5,28.4c0,-1.4,1.1,-1.9,2.5,-1.9s10.5,0,10.5,0V3.5H19c-1.381,0,-2.5,1.119,-2.5,2.5C16.5,6,16.5,30.2,16.5,28.4z" fill="#FFFFFF" stroke="#383838" stroke-width="1" stroke-miterlimit="5"/>
    <path d="M6,7.5h8M6,10.5h8M6,13.5h8M6,16.5h8M6,19.5h8M6,22.5h8M19,7.5h8M19,10.5h8M19,13.5h8M19,16.5h8M19,19.5h8M19,22.5h8" fill="#FFFFFF" stroke="#228BCB" stroke-width="1" stroke-miterlimit="5"/>
  </g>
</svg>
