<?xml version="1.0" encoding="UTF-8"?>
<!DOCTYPE svg PUBLIC "-//W3C//DTD SVG 1.1//EN" "http://www.w3.org/Graphics/SVG/1.1/DTD/svg11.dtd">
<svg version="1.1" id="Layer_1" xmlns="http://www.w3.org/2000/svg" xmlns:xlink="http://www.w3.org/1999/xlink" x="0px" y="0px" width="16px" height="16px" viewBox="0 0 16 16" enable-background="new 0 0 16 16" xml:space="preserve">
  <g id="icon">
    <path d="M10.311,0.7c1.362,1.087,0.637,1.463,0.387,3.107M15.3,5.708c-1.084,-1.365,-1.612,-0.728,-3.252,-0.478M8.235,1.832c0,0,-0.093,0.836,-0.185,1.077c-0.093,0.241,-0.241,0.427,-0.334,0.65c-0.093,0.223,0.077,1.163,0.077,1.163M11.341,8.279c0,0,0.788,0.13,1.01,0.037c0.222,-0.093,0.408,-0.241,0.649,-0.334c0.241,-0.093,1.13,-0.241,1.13,-0.241M10.746,9.957l0.371,1.441c0,0,-0.361,0.984,-0.361,1.225s0.334,0.743,0.334,0.743M8.306,12.938l-0.219,0.929c0,0,-0.612,0.677,-0.667,0.912c-0.055,0.235,0.007,0.621,0.007,0.621M2.522,4.835c0,0,0.5,0.334,0.741,0.334s1.482,-0.204,1.482,-0.204l1.108,0.486M0.6,8.505c0,0,0.28,0.063,0.514,0.008s0.908,-0.669,0.908,-0.669l1.211,-0.101" fill="#FFFFFF" stroke="#383838" stroke-width="1" stroke-linecap="square" stroke-miterlimit="1"/>
    <path d="M11.411,7.014c-0.21,0.828,-0.58,2.128,-1.059,3.08c-1.002,2.501,-3.969,4.214,-6.366,1.812c-2.397,-2.403,-0.609,-5.298,1.808,-6.381c0.956,-0.389,2.289,-0.786,3.154,-1.011" fill="#FFFFFF" stroke="#EE3D3B" stroke-width="1" stroke-miterlimit="1"/>
    <path d="M11.411,6.992c-0.386,-0.307,-0.85,-0.687,-1.305,-1.142c-0.471,-0.472,-0.861,-0.955,-1.173,-1.35c0.033,-0.078,0.081,-0.15,0.146,-0.215c0.454,-0.455,1.654,-0.518,2.38,0.21c0.726,0.728,0.684,1.869,0.23,2.324C11.606,6.9,11.513,6.957,11.411,6.992z" fill="#FFFFFF" stroke="#787979" stroke-width="1" stroke-miterlimit="1"/>
  </g>
</svg>
