<?xml version="1.0" encoding="UTF-8"?>
<!DOCTYPE svg PUBLIC "-//W3C//DTD SVG 1.1//EN" "http://www.w3.org/Graphics/SVG/1.1/DTD/svg11.dtd">
<svg version="1.1" id="Layer_1" xmlns="http://www.w3.org/2000/svg" xmlns:xlink="http://www.w3.org/1999/xlink" x="0px" y="0px" width="32px" height="32px" viewBox="0 0 32 32" enable-background="new 0 0 32 32" xml:space="preserve">
  <g id="icon">
    <path d="M19.973,1.7c2.552,2.049,1.389,3.541,0.92,6.641M30.3,12.122c-2.031,-2.574,-3.802,-1.569,-6.876,-1.096M16.28,4.616c0,0,-0.174,1.576,-0.347,2.032s-0.451,0.806,-0.625,1.226c-0.174,0.42,0.144,2.194,0.144,2.194M22.099,16.774c0,0,1.476,0.245,1.893,0.07c0.417,-0.175,0.764,-0.455,1.215,-0.63c0.451,-0.175,2.118,-0.455,2.118,-0.455M20.985,19.939l0.695,2.717c0,0,-0.677,1.856,-0.677,2.311c0,0.455,0.625,1.401,0.625,1.401M16.413,25.561l-0.411,1.753c0,0,-1.147,1.277,-1.25,1.72c-0.103,0.443,0.208,1.366,0.208,1.366M5.574,10.28c0,0,0.938,0.63,1.389,0.63c0.451,0,2.778,-0.385,2.778,-0.385l2.076,0.917M1.581,17.005c0,0,0.915,0.314,1.354,0.21c0.439,-0.104,1.701,-1.261,1.701,-1.261l2.268,-0.19" fill="#FFFFFF" stroke="#383838" stroke-width="1.1" stroke-linecap="square" stroke-miterlimit="1"/>
    <path d="M22.23,14.39c-0.394,1.561,-1.087,4.013,-1.985,5.808c-1.878,4.717,-7.438,7.948,-11.93,3.417c-4.492,-4.531,-1.141,-9.991,3.388,-12.034c1.791,-0.734,4.29,-1.482,5.91,-1.906" fill="#FFFFFF" stroke="#EE3D3B" stroke-width="1.1" stroke-miterlimit="1"/>
    <path d="M22.23,14.348c-0.724,-0.58,-1.593,-1.295,-2.445,-2.154c-0.883,-0.891,-1.613,-1.801,-2.199,-2.546c0.061,-0.146,0.151,-0.282,0.273,-0.406c0.851,-0.858,3.099,-0.978,4.46,0.396c1.361,1.373,1.281,3.524,0.431,4.382C22.596,14.175,22.421,14.283,22.23,14.348z" fill="#FFFFFF" stroke="#787979" stroke-width="1" stroke-miterlimit="1"/>
  </g>
</svg>
