<?xml version="1.0" encoding="UTF-8"?>
<!DOCTYPE svg PUBLIC "-//W3C//DTD SVG 1.1//EN" "http://www.w3.org/Graphics/SVG/1.1/DTD/svg11.dtd">
<svg version="1.1" id="Layer_1" xmlns="http://www.w3.org/2000/svg" xmlns:xlink="http://www.w3.org/1999/xlink" x="0px" y="0px" width="32px" height="32px" viewBox="0 0 32 32" enable-background="new 0 0 32 32" xml:space="preserve">
  <g id="icon">
    <path d="M4.5,7.5v4.569C5.752,10.165,7.934,8.9,10.414,8.9c3.877,0,7.031,3.09,7.031,6.887c0,1.951,-0.835,3.77,-2.257,5.056c0.968,0.58,1.865,1.336,2.648,2.238c0.638,0.735,1.183,1.551,1.627,2.419H30.5V7.5H4.5z" fill="#FFFFFF"/>
    <path d="M31,7v19H19.703c-0.155,-0.341,-0.326,-0.675,-0.512,-1H30V8H5v3.398c-0.402,0.475,-0.739,1.004,-1,1.573V7H31z" fill="#383838"/>
    <rect x="4.5" y="2.5" width="26" height="5" fill="#C8C6C4"/>
    <path d="M4,2v6h27V2H4zM30,7H5V3h25V7z" fill="#383838"/>
    <path d="M11,5h-1V1h1V5zM25,1v4h1V1H25z" fill="#383838"/>
    <path d="M14.218,10c0.453,0.287,0.87,0.622,1.243,1H17v2h-0.159c0.387,0.853,0.604,1.795,0.604,2.787c0,0.839,-0.155,1.653,-0.444,2.411V19h-0.368c-0.189,0.351,-0.409,0.686,-0.657,1H17v2h-0.239c0.35,0.309,0.684,0.642,1.001,1H28V10H14.218zM22,22h-4v-2h4V22zM22,19h-4v-2h4V19zM22,16h-4v-2h4V16zM22,13h-4v-2h4V13zM27,22h-4v-2h4V22zM27,19h-4v-2h4V19zM27,16h-4v-2h4V16zM27,13h-4v-2h4V13z" fill="#787979" opacity="0.6"/>
    <path d="M15.844,15.787c0,2.92,-2.431,5.287,-5.431,5.287s-5.431,-2.367,-5.431,-5.287S7.414,10.5,10.414,10.5S15.844,12.867,15.844,15.787zM19.205,30.987c0,-5.098,-3.941,-9.891,-8.802,-9.891S1.6,25.889,1.6,30.987" fill="#FFFFFF" stroke="#383838" stroke-width="1.2" stroke-miterlimit="1"/>
  </g>
</svg>
