<?xml version="1.0" encoding="UTF-8"?>
<!DOCTYPE svg PUBLIC "-//W3C//DTD SVG 1.1//EN" "http://www.w3.org/Graphics/SVG/1.1/DTD/svg11.dtd">
<svg version="1.1" id="Layer_1" xmlns="http://www.w3.org/2000/svg" xmlns:xlink="http://www.w3.org/1999/xlink" x="0px" y="0px" width="32px" height="32px" viewBox="0 0 32 32" enable-background="new 0 0 32 32" xml:space="preserve">
  <g id="icon">
    <path d="M3.5,16.435V3.483C3.5,2.388,4.388,1.5,5.483,1.5h21.033C27.612,1.5,28.5,2.388,28.5,3.483v13.001c-0.771,-1.526,-2.374,-2.484,-4.232,-2.484c-0.119,0,-0.239,0.004,-0.356,0.013c-0.61,0.043,-1.18,0.238,-1.701,0.58c-1.336,0.095,-2.41,0.888,-2.975,2.209c-0.29,0.679,-0.445,1.398,-0.461,2.138c-0.011,0.536,0.012,1.056,0.038,1.561h-5.517c0.068,-0.348,0.104,-0.704,0.104,-1.065c0,-2.997,-2.423,-5.435,-5.4,-5.435C6.124,14,4.468,14.969,3.5,16.435z" fill="#FFFFFF"/>
    <path d="M29.162,20H31v1h-1.793c-0.024,-0.278,-0.038,-0.589,-0.044,-0.954C29.162,20.031,29.162,20.015,29.162,20zM18.835,20.92l-0.015,-0.288c-0.011,-0.208,-0.021,-0.419,-0.029,-0.632h-5.42c-0.035,0.341,-0.101,0.675,-0.197,1h5.664C18.837,20.974,18.836,20.948,18.835,20.92zM2.63,20H1v1h1.827C2.731,20.676,2.665,20.341,2.63,20zM4,15.788V3.483C4,2.665,4.665,2,5.483,2h21.033c0.818,0,1.483,0.665,1.483,1.483v12.227c0.31,0.384,0.557,0.822,0.727,1.305c0.123,0.351,0.21,0.696,0.273,1.034V3.483C29,2.114,27.886,1,26.517,1H5.483C4.114,1,3,2.114,3,3.483v13.902C3.24,16.794,3.58,16.254,4,15.788z" fill="#383838"/>
    <path d="M11.901,19.435c0,2.173,-1.746,4.035,-3.9,4.035s-3.9,-1.862,-3.9,-4.035S5.846,15.5,8.001,15.5S11.901,17.262,11.901,19.435zM14.5,30.976c0,-3.799,-2.985,-7.48,-6.474,-7.48S1.5,27.177,1.5,30.976" fill="#FFFFFF"/>
    <path d="M15,30.976h-1c0,-3.653,-2.847,-6.98,-5.974,-6.98c-1.498,0,-3.026,0.78,-4.192,2.141C2.669,27.497,2,29.261,2,30.976H1c0,-3.356,2.162,-6.471,4.919,-7.566C4.551,22.631,3.6,21.123,3.6,19.435c0,-2.445,1.974,-4.435,4.4,-4.435s4.4,1.989,4.4,4.435c0,1.68,-0.942,3.182,-2.299,3.965c1.049,0.411,2.034,1.125,2.851,2.089C14.254,27.023,15,29.024,15,30.976zM8.001,16c-1.875,0,-3.4,1.541,-3.4,3.435c0,1.916,1.557,3.535,3.4,3.535c1.843,0,3.4,-1.619,3.4,-3.535C11.401,17.541,9.876,16,8.001,16z" fill="#228BCB"/>
    <path d="M17.483,31c0,-2.946,1.944,-5.649,4.614,-6.578l3.839,0.018C28.581,25.386,30.5,28.072,30.5,31M26.072,24.407c0.901,-0.033,1.769,-0.154,2.52,-0.667c0.156,-0.107,0.158,-0.331,-0.001,-0.436c-0.511,-0.337,-0.689,-0.873,-0.785,-1.431c-0.103,-0.593,-0.134,-1.201,-0.144,-1.803c-0.013,-0.868,-0.058,-1.723,-0.351,-2.557c-0.54,-1.537,-2.08,-2.09,-3.293,-2.004c-0.423,0.03,-0.807,0.191,-1.143,0.452c-0.084,0.065,-0.205,0.126,-0.307,0.123c-1.018,-0.031,-1.627,0.545,-1.952,1.307c-0.216,0.506,-0.329,1.039,-0.341,1.58c-0.013,0.625,0.027,1.251,0.058,1.876c0.032,0.647,-0.016,1.279,-0.34,1.865c-0.151,0.273,-0.29,0.433,-0.535,0.601c-0.157,0.107,-0.159,0.329,-0.002,0.437c0.453,0.313,1.287,0.525,2.522,0.639C23.35,24.532,24.715,24.535,26.072,24.407z" fill="#FFFFFF"/>
    <path d="M31,31h-1c0,-2.665,-1.704,-5.145,-4.154,-6.06l-0.13,-0.001c-1.133,0.086,-2.272,0.08,-3.395,-0.016l-0.139,-0.001c-2.477,0.9,-4.199,3.387,-4.199,6.077h-1c0,-2.576,1.372,-4.991,3.476,-6.334c-0.557,-0.128,-0.984,-0.295,-1.287,-0.505c-0.209,-0.144,-0.333,-0.38,-0.332,-0.631c0.001,-0.251,0.126,-0.487,0.336,-0.631c0.175,-0.119,0.263,-0.22,0.379,-0.43c0.229,-0.415,0.312,-0.893,0.278,-1.599l-0.015,-0.289c-0.027,-0.529,-0.055,-1.076,-0.043,-1.622c0.013,-0.611,0.141,-1.205,0.381,-1.766c0.452,-1.058,1.299,-1.631,2.386,-1.611c0.008,-0.004,0.017,-0.01,0.026,-0.017c0.428,-0.333,0.904,-0.52,1.415,-0.557c1.447,-0.103,3.184,0.58,3.8,2.337c0.325,0.927,0.366,1.85,0.379,2.715c0.011,0.712,0.053,1.244,0.136,1.726c0.1,0.58,0.265,0.898,0.568,1.099c0.213,0.14,0.341,0.375,0.343,0.628c0.002,0.254,-0.123,0.493,-0.335,0.638c-0.407,0.278,-0.841,0.453,-1.275,0.564C29.659,26.071,31,28.463,31,31zM22.367,23.924l3.313,0.015c0.115,-0.009,0.23,-0.019,0.345,-0.03l0.029,-0.002c0.668,-0.024,1.363,-0.095,1.976,-0.413c-0.472,-0.45,-0.632,-1.045,-0.717,-1.536c-0.119,-0.685,-0.143,-1.365,-0.151,-1.881c-0.012,-0.783,-0.047,-1.613,-0.323,-2.399c-0.442,-1.259,-1.718,-1.747,-2.786,-1.671c-0.31,0.022,-0.603,0.139,-0.872,0.348c-0.092,0.072,-0.338,0.238,-0.629,0.229c-0.697,-0.02,-1.18,0.307,-1.478,1.003c-0.189,0.443,-0.29,0.912,-0.301,1.394c-0.011,0.51,0.016,1.038,0.042,1.549l0.015,0.292c0.029,0.601,0.01,1.386,-0.402,2.131c-0.123,0.222,-0.246,0.391,-0.4,0.539c0.351,0.147,0.954,0.303,1.993,0.399C22.138,23.903,22.252,23.914,22.367,23.924z" fill="#A0519F"/>
  </g>
</svg>
