<?xml version="1.0" encoding="UTF-8"?>
<!DOCTYPE svg PUBLIC "-//W3C//DTD SVG 1.1//EN" "http://www.w3.org/Graphics/SVG/1.1/DTD/svg11.dtd">
<svg version="1.1" id="Layer_1" xmlns="http://www.w3.org/2000/svg" xmlns:xlink="http://www.w3.org/1999/xlink" x="0px" y="0px" width="32px" height="32px" viewBox="0 0 32 32" enable-background="new 0 0 32 32" xml:space="preserve">
  <g id="icon">
    <path d="M17.655,24.178l-5.67,2.185c-0.766,0.295,-1.52,-0.456,-1.227,-1.223l2.169,-5.689L23.5,8.897V2.5H1.5v28h22V18.349L17.655,24.178z" fill="#FFFFFF"/>
    <path d="M24,17.85V31H1V2h23v6.398l-1,0.998V3H2v27h21V18.848L24,17.85z" fill="#383838"/>
    <path d="M4.5,23.5h4v4H4.5V23.5zM4.5,21.5h4v-4H4.5V21.5zM4.5,9.5h4V5.5H4.5V9.5zM4.5,15.5h4v-4H4.5V15.5z" fill="#FFFFFF"/>
    <path d="M4,28h5v-5H4V28zM5,24h3v3H5V24zM4,10h5V5H4V10zM5,6h3v3H5V6zM4,22h5v-5H4V22zM5,18h3v3H5V18zM4,16h5v-5H4V16zM5,12h3v3H5V12z" fill="#383838"/>
    <path d="M21,8H11V7h10V8zM12.927,19.451l0.452,-0.451H11v1h1.717L12.927,19.451zM12.927,26H21v-1h-5.478L12.927,26zM19.389,13H11v1h7.388L19.389,13z" fill="#78797A"/>
    <path d="M14.214,20.286l13.263,-13.24c0.572,-0.571,1.498,-0.571,2.07,0l0.543,0.543c0.572,0.572,0.572,1.5,-0.001,2.071L16.82,22.892L12.6,24.519L14.214,20.286zM24.972,9.555l2.508,2.578" fill="#FFFFFF"/>
    <path d="M11.733,25.388l2.051,-5.38l0.076,-0.076l13.263,-13.24c0.766,-0.765,2.011,-0.765,2.777,0.001l0.543,0.543c0.371,0.371,0.575,0.865,0.575,1.39s-0.205,1.018,-0.576,1.389L17.098,23.321L11.733,25.388zM14.643,20.565l-1.176,3.084l3.075,-1.185l10.3,-10.272l-1.878,-1.93L14.643,20.565zM25.671,9.556l1.878,1.931l2.186,-2.18c0.182,-0.182,0.283,-0.424,0.283,-0.682c0,-0.258,-0.1,-0.5,-0.282,-0.682L29.193,7.4c-0.376,-0.375,-0.987,-0.376,-1.363,0L25.671,9.556z" fill="#228BCB"/>
  </g>
</svg>
