<?xml version="1.0" encoding="UTF-8"?>
<!DOCTYPE svg PUBLIC "-//W3C//DTD SVG 1.1//EN" "http://www.w3.org/Graphics/SVG/1.1/DTD/svg11.dtd">
<svg version="1.1" id="Layer_1" xmlns="http://www.w3.org/2000/svg" xmlns:xlink="http://www.w3.org/1999/xlink" x="0px" y="0px" width="32px" height="32px" viewBox="0 0 32 32" enable-background="new 0 0 32 32" xml:space="preserve">
  <g id="icon">
    <path d="M8.946,24.487l1.585,-12.866c0.011,-0.067,0.032,-0.238,0.032,-0.238l0.064,-0.512l1.089,-0.295l0.313,0.427c0.014,0.019,0.096,0.131,0.129,0.171l0.019,0.024l7.871,10.27l-1.222,0.937l-2.553,-3.332l-5.285,1.437l-0.513,4.166L8.946,24.487zM11.191,18.858l4.069,-1.107l-3.388,-4.421L11.191,18.858zM19.063,12.269l-2.601,0.707l-0.404,-1.486l2.601,-0.707l-0.707,-2.601l1.486,-0.404l0.707,2.601l2.601,-0.707l0.404,1.486l-2.601,0.707l0.707,2.601l-1.486,0.404L19.063,12.269z" fill="#EF3E3B"/>
    <path d="M14.214,29.9c-0.439,0,-0.826,-0.014,-1.06,-0.039c-2.85,-0.287,-5.37,-1.373,-7.49,-3.229c-2.262,-1.977,-3.892,-4.881,-4.361,-7.768c-0.192,-1.187,-0.197,-2.65,-0.014,-3.912c0.229,-1.593,0.693,-3.114,1.418,-4.649C4.16,7.227,6.402,4.71,9.19,3.025c0.598,-0.363,1.404,-0.765,1.696,-0.882l0.187,-0.075l0.067,0.19c0.055,0.157,0.157,0.466,0.276,0.861c0.092,0.296,0.194,0.624,0.235,0.805l0.032,0.142l-0.128,0.07c-0.06,0.033,-0.186,0.1,-0.36,0.179c-1.29,0.592,-2.402,1.312,-3.5,2.265c-0.426,0.37,-1.416,1.4,-1.765,1.836c-1.684,2.12,-2.725,4.562,-3.013,7.062c-0.076,0.672,-0.074,1.946,0.003,2.572c0.242,2.012,1.089,4.064,2.384,5.78c0.4,0.531,1.3,1.478,1.815,1.911c1.769,1.483,3.819,2.351,6.092,2.58c0.25,0.025,0.623,0.039,1.051,0.039c0.612,0,1.207,-0.027,1.552,-0.072c1.902,-0.252,3.784,-0.912,5.753,-2.016c1.721,-0.964,3.139,-2.059,4.461,-3.446c1.217,-1.28,2.02,-2.428,2.686,-3.84c0.741,-1.58,1.05,-2.961,1.004,-4.478c-0.037,-1.257,-0.264,-2.21,-0.811,-3.399c-0.534,-1.161,-1.155,-2.038,-2.077,-2.933c-1.674,-1.626,-4.027,-2.697,-6.625,-3.015c-0.558,-0.067,-1.141,-0.101,-1.731,-0.101c-1.373,0,-2.801,0.186,-4.128,0.537c-0.036,0.01,-0.117,0.031,-0.186,0.046l-0.16,0.035l-0.061,-0.152c-0.046,-0.114,-0.099,-0.283,-0.13,-0.384c-0.03,-0.095,-0.091,-0.29,-0.118,-0.412l-0.039,-0.173l0.169,-0.054c0.086,-0.027,0.229,-0.063,0.298,-0.08c1.648,-0.421,3.023,-0.609,4.458,-0.609c0.134,0,0.268,0.002,0.404,0.005c0.838,0.018,1.455,0.076,2.201,0.207c2.525,0.446,4.582,1.431,6.287,3.012c1.754,1.624,2.992,4.061,3.31,6.52c0.065,0.489,0.088,1.493,0.046,2.026c-0.327,4.06,-2.832,8.041,-6.873,10.924c-2.614,1.864,-5.58,3.048,-8.352,3.335C15.281,29.879,14.75,29.9,14.214,29.9z" fill="#EF3E3B"/>
  </g>
</svg>
