<svg xmlns="http://www.w3.org/2000/svg" viewBox="0 0 48 48">
  <path d="M24 4C15.81 4 8.7599219 8.94 5.6699219 16L9.0097656 16C10.906787 12.451375 14.036384 9.6594901 17.816406 8.1757812C16.507609 10.210641 15.469773 12.891594 14.810547 16L17.869141 16C19.149141 10.46 21.67 7 24 7C26.33 7 28.850859 10.46 30.130859 16L33.189453 16C32.530227 12.891594 31.492391 10.210641 30.183594 8.1757812C33.963616 9.6594901 37.093213 12.451375 38.990234 16L42.330078 16C39.240078 8.94 32.19 4 24 4 z M 14.638672 18.027344 A 1.250125 1.250125 0 0 0 13.464844 19.103516L12.642578 24.261719L11.146484 20.804688 A 1.250125 1.250125 0 0 0 8.8535156 20.804688L7.3574219 24.261719L6.5351562 19.103516 A 1.250125 1.250125 0 0 0 5.3300781 18.033203 A 1.250125 1.250125 0 0 0 4.0664062 19.496094L5.5664062 28.896484 A 1.250125 1.250125 0 0 0 7.9472656 29.195312L10 24.447266L12.052734 29.195312 A 1.250125 1.250125 0 0 0 14.433594 28.896484L15.933594 19.496094 A 1.250125 1.250125 0 0 0 14.638672 18.027344 z M 28.638672 18.027344 A 1.250125 1.250125 0 0 0 27.464844 19.103516L26.642578 24.261719L25.146484 20.804688 A 1.250125 1.250125 0 0 0 22.853516 20.804688L21.357422 24.261719L20.535156 19.103516 A 1.250125 1.250125 0 0 0 19.330078 18.033203 A 1.250125 1.250125 0 0 0 18.066406 19.496094L19.566406 28.896484 A 1.250125 1.250125 0 0 0 21.947266 29.195312L24 24.447266L26.052734 29.195312 A 1.250125 1.250125 0 0 0 28.433594 28.896484L29.933594 19.496094 A 1.250125 1.250125 0 0 0 28.638672 18.027344 z M 42.638672 18.027344 A 1.250125 1.250125 0 0 0 41.464844 19.103516L40.642578 24.261719L39.146484 20.804688 A 1.250125 1.250125 0 0 0 36.853516 20.804688L35.357422 24.261719L34.535156 19.103516 A 1.250125 1.250125 0 0 0 33.330078 18.033203 A 1.250125 1.250125 0 0 0 32.066406 19.496094L33.566406 28.896484 A 1.250125 1.250125 0 0 0 35.947266 29.195312L38 24.447266L40.052734 29.195312 A 1.250125 1.250125 0 0 0 42.433594 28.896484L43.933594 19.496094 A 1.250125 1.250125 0 0 0 42.638672 18.027344 z M 5.6699219 32C8.7599219 39.06 15.81 44 24 44C32.19 44 39.240078 39.06 42.330078 32L38.990234 32C37.093213 35.548625 33.963616 38.34051 30.183594 39.824219C31.492391 37.789359 32.530227 35.108406 33.189453 32L30.130859 32C28.850859 37.54 26.33 41 24 41C21.67 41 19.149141 37.54 17.869141 32L14.810547 32C15.469773 35.108406 16.507609 37.789359 17.816406 39.824219C14.036384 38.34051 10.906787 35.548625 9.0097656 32L5.6699219 32 z" fill="#0071BC" />
</svg>