<svg xmlns="http://www.w3.org/2000/svg" viewBox="0 0 48 48"><path fill="#50e6ff" d="M44,13v29h-8V13c0-0.552,0.448-1,1-1h6C43.552,12,44,12.448,44,13z"/><path fill="#50e6ff" d="M7.293,19.05L17.799,8.544l2.657,2.657L9.95,21.707c-0.391,0.391-1.024,0.391-1.414,0l-1.243-1.243C6.902,20.074,6.902,19.441,7.293,19.05z"/><path fill="#35c1f1" d="M36,18v24h-8V19c0-0.552,0.448-1,1-1H36z"/><path fill="#199be2" d="M28,24v18h-8V25c0-0.552,0.448-1,1-1H28z"/><path fill="#0078d4" d="M20,30v12h-8V31c0-0.552,0.448-1,1-1H20z"/><path fill="#0d62ab" d="M12,36v6H4v-5c0-0.552,0.448-1,1-1H12z"/><path fill="#50e6ff" d="M22,14.793V8c0-0.552-0.448-1-1-1h-6.793c-0.445,0-0.669,0.539-0.354,0.854l7.293,7.293C21.461,15.461,22,15.238,22,14.793z"/></svg>