<svg xmlns="http://www.w3.org/2000/svg" viewBox="0 0 48 48"><path fill="#61e3a7" d="M9.216,40.372L3.06,23.458c-0.189-0.519,0.079-1.093,0.598-1.282L39.366,9.179c0.519-0.189,1.093,0.079,1.282,0.598l6.157,16.914c0.189,0.519-0.079,1.093-0.598,1.282L10.498,40.97C9.979,41.159,9.406,40.891,9.216,40.372z"/><path fill="#107c42" d="M7.417,20.808l6.84,18.794l28.191-10.261l-6.84-18.794L7.417,20.808z M22.113,26.1c-1.322-3.633,0.551-7.65,4.184-8.972s7.65,0.551,8.972,4.184c1.322,3.633-0.551,7.65-4.184,8.972S23.435,29.733,22.113,26.1z M13.657,35.031c-0.283-0.779,0.119-1.64,0.897-1.923c0.779-0.283,1.64,0.119,1.923,0.897c0.283,0.779-0.119,1.64-0.897,1.923C14.802,36.211,13.941,35.81,13.657,35.031z M17.416,33.663c-0.283-0.779,0.119-1.64,0.897-1.923c0.779-0.283,1.64,0.119,1.923,0.897c0.283,0.779-0.119,1.64-0.897,1.923C18.561,34.843,17.7,34.441,17.416,33.663z"/><path d="M6.096,31.803l1.256,3.45c0.328,0.214,0.701,0.333,1.085,0.333c0.117,0,0.235-0.009,0.351-0.03l0.001-0.001l32.173-5.673l5.244-1.909c0.519-0.189,0.787-0.763,0.598-1.282L40.648,9.777c-0.189-0.519-0.763-0.787-1.282-0.598L4.355,21.922L6.096,31.803z" opacity=".05"/><linearGradient id="0AxW5c1nvyQiVdCFsBs3Qa" x1="24.022" x2="24.022" y1="-597.203" y2="-578.676" gradientTransform="rotate(180 24.933 -281)" gradientUnits="userSpaceOnUse"><stop offset="0"/><stop offset=".188" stop-color="#040405"/><stop offset=".397" stop-color="#111212"/><stop offset=".615" stop-color="#262828"/><stop offset=".838" stop-color="#444647"/><stop offset="1" stop-color="#5e6162"/></linearGradient><path fill="url(#0AxW5c1nvyQiVdCFsBs3Qa)" d="M39.366,9.179L4.831,21.75l1.658,9.405l0.915,3.352c0.201,0.315,0.548,0.53,0.935,0.57c0.118,0.012,0.24,0.008,0.362-0.013l0.001-0.001l32.076-5.656l5.344-1.434c0.369-0.098,0.632-0.392,0.713-0.741c0.005-0.024,0.011-0.047,0.014-0.071c0.01-0.066,0.007-0.135,0.004-0.203c-0.006-0.089-0.017-0.179-0.049-0.267L40.648,9.777C40.459,9.258,39.885,8.99,39.366,9.179z" opacity=".07"/><path fill="#61e3a7" d="M7.458,33.76L4.332,16.033c-0.096-0.543,0.267-1.062,0.811-1.158l37.423-6.599c0.543-0.096,1.062,0.267,1.158,0.811l3.125,17.727c0.096,0.543-0.267,1.062-0.811,1.158L8.616,34.57C8.072,34.666,7.553,34.303,7.458,33.76z"/><path fill="#21a366" d="M9.082,14.179l3.473,19.696l29.544-5.209L38.626,8.97L9.082,14.179z M22.636,21.944c-0.671-3.807,1.871-7.438,5.678-8.109c3.807-0.671,7.438,1.871,8.109,5.678c0.671,3.807-1.871,7.438-5.678,8.109S23.307,25.751,22.636,21.944z M12.758,29.27c-0.144-0.816,0.401-1.594,1.217-1.738c0.816-0.144,1.594,0.401,1.738,1.217s-0.401,1.594-1.217,1.738C13.68,30.631,12.902,30.086,12.758,29.27z M16.697,28.576c-0.144-0.816,0.401-1.594,1.217-1.738s1.594,0.401,1.738,1.217c0.144,0.816-0.401,1.594-1.217,1.738C17.619,29.937,16.841,29.392,16.697,28.576z"/><path d="M40.207,29l5.832-1.029c0.544-0.095,0.907-0.614,0.811-1.158L43.724,9.087c-0.096-0.544-0.615-0.907-1.158-0.811L5.865,14.747v9.982l0.661,3.745C6.881,28.798,7.348,29,7.865,29H40.207z" opacity=".05"/><linearGradient id="0AxW5c1nvyQiVdCFsBs3Qb" x1="23.272" x2="23.272" y1="-590.651" y2="-567.335" gradientTransform="rotate(180 24.933 -281)" gradientUnits="userSpaceOnUse"><stop offset="0"/><stop offset=".188" stop-color="#040405"/><stop offset=".397" stop-color="#111212"/><stop offset=".615" stop-color="#262828"/><stop offset=".838" stop-color="#444647"/><stop offset="1" stop-color="#5e6162"/></linearGradient><path fill="url(#0AxW5c1nvyQiVdCFsBs3Qb)" d="M42.566,8.276L6.364,14.659v10.058l0.196,2.256c0,0.277,0.359,1.264,0.635,1.264C7.373,28.399,8.308,28.5,8.566,28.5h31.971l5.024-0.444c0.037,0,0.161-0.029,0.196-0.037c0.054-0.012,0.258-0.058,0.303-0.086c0.011-0.007,0.04-0.017,0.05-0.025c0.039-0.028,0.203-0.085,0.233-0.123c0.032-0.019,0.062-0.039,0.091-0.061c0.064-0.048,0.119-0.103,0.168-0.165c0.033-0.043,0.062-0.089,0.088-0.138c0.045-0.085,0.084-0.175,0.101-0.271c0.057-0.099,0.023-0.54,0.002-0.66L43.724,9.087C43.628,8.543,43.109,8.18,42.566,8.276z" opacity=".07"/><path fill="#61e3a7" d="M6.865,27V9c0-0.552,0.448-1,1-1h38c0.552,0,1,0.448,1,1v18c0,0.552-0.448,1-1,1h-38C7.313,28,6.865,27.552,6.865,27z"/><path fill="#33c481" d="M11.865,8v20h30V8H11.865z M23.865,18c0-3.866,3.134-7,7-7s7,3.134,7,7s-3.134,7-7,7S23.865,21.866,23.865,18z M12.865,23.5c0-0.828,0.672-1.5,1.5-1.5s1.5,0.672,1.5,1.5s-0.672,1.5-1.5,1.5S12.865,24.328,12.865,23.5z M16.865,23.5c0-0.828,0.672-1.5,1.5-1.5s1.5,0.672,1.5,1.5s-0.672,1.5-1.5,1.5S16.865,24.328,16.865,23.5z"/><radialGradient id="0AxW5c1nvyQiVdCFsBs3Qc" cx="36.372" cy="36.665" r="9.885" gradientUnits="userSpaceOnUse"><stop offset="0"/><stop offset="1" stop-opacity="0"/></radialGradient><path fill="url(#0AxW5c1nvyQiVdCFsBs3Qc)" d="M45.125,28.367C43.13,26.887,40.669,26,38,26c-5.652,0-10.392,3.933-11.657,9.203L45.125,28.367z"/><radialGradient id="0AxW5c1nvyQiVdCFsBs3Qd" cx="41.156" cy="30.111" r="9.05" gradientUnits="userSpaceOnUse"><stop offset="0"/><stop offset="1" stop-opacity="0"/></radialGradient><path fill="url(#0AxW5c1nvyQiVdCFsBs3Qd)" d="M41,20.778c-4.962,0-9,4.037-9,9c0,1.111,0.212,2.171,0.582,3.154l13.625-4.959c0.333-0.121,0.545-0.406,0.617-0.728c0.006-0.021,0.012-0.042,0.016-0.064c0.007-0.048,0.017-0.094,0.017-0.143c0.001-0.013,0.008-0.024,0.008-0.038v-4.034C45.288,21.607,43.241,20.778,41,20.778z"/><circle cx="41" cy="29.778" r="7" fill="#ff8f6b"/><circle cx="41" cy="29.778" r="5" fill="#ed6c47"/><linearGradient id="0AxW5c1nvyQiVdCFsBs3Qe" x1="31.136" x2="45.056" y1="-174.864" y2="-160.944" gradientTransform="translate(0 206)" gradientUnits="userSpaceOnUse"><stop offset="0" stop-color="#fede00"/><stop offset="1" stop-color="#ffd000"/></linearGradient><circle cx="38" cy="38" r="10" fill="url(#0AxW5c1nvyQiVdCFsBs3Qe)"/><circle cx="38" cy="38" r="8" fill="#f5be00"/><path fill="#fee119" d="M35.767,41.685v-1.49c0.541,0.331,1.117,0.497,1.728,0.497c0.46,0,0.82-0.109,1.079-0.328c0.259-0.219,0.389-0.516,0.389-0.892c0-0.784-0.554-1.176-1.662-1.176c-0.361,0-0.797,0.033-1.309,0.099v-4.423h4.384v1.425h-2.893v1.584c0.232-0.022,0.451-0.033,0.657-0.033c0.813,0,1.45,0.214,1.91,0.64c0.46,0.427,0.69,1.002,0.69,1.723c0,0.798-0.274,1.451-0.823,1.957c-0.548,0.507-1.292,0.759-2.231,0.759C36.926,42.028,36.286,41.914,35.767,41.685z"/></svg>