<svg xmlns="http://www.w3.org/2000/svg" viewBox="0 0 48 48">
  <path d="M22.5 5 A 1.50015 1.50015 0 0 0 21 6.5L21 10L20.5 10C19.34203 10 18.301263 10.474942 17.5 11.205078C16.698737 10.474942 15.65797 10 14.5 10L12 10L12 7.5 A 1.50015 1.50015 0 0 0 10.476562 5.9785156 A 1.50015 1.50015 0 0 0 9 7.5L9 10.306641C7.267923 10.934802 6 12.56309 6 14.5L6 37.5C6 39.967501 8.0324991 42 10.5 42L14.5 42C15.65797 42 16.698737 41.525058 17.5 40.794922C18.301263 41.525058 19.34203 42 20.5 42L37.5 42C39.967501 42 42 39.967501 42 37.5L42 14.5C42 12.032499 39.967501 10 37.5 10L37 10L37 6.5 A 1.50015 1.50015 0 0 0 35.5 5L22.5 5 z M 24 8L34 8L34 11.253906 A 1.50015 1.50015 0 0 0 34 11.740234L34 17L24 17L24 11.746094 A 1.50015 1.50015 0 0 0 24 11.259766L24 8 z M 10.740234 13L14.5 13C15.346499 13 16 13.653501 16 14.5L16 37.5C16 38.346499 15.346499 39 14.5 39L10.5 39C9.6535009 39 9 38.346499 9 37.5L9 14.5C9 13.672153 9.6338142 13.047477 10.453125 13.019531 A 1.50015 1.50015 0 0 0 10.740234 13 z M 20.5 13L21 13L21 18.5 A 1.50015 1.50015 0 0 0 22.5 20L35.5 20 A 1.50015 1.50015 0 0 0 37 18.5L37 13L37.5 13C38.346499 13 39 13.653501 39 14.5L39 37.5C39 38.346499 38.346499 39 37.5 39L20.5 39C19.653501 39 19 38.346499 19 37.5L19 14.5C19 13.653501 19.653501 13 20.5 13 z M 23.5 23 A 1.5 1.5 0 0 0 23.5 26 A 1.5 1.5 0 0 0 23.5 23 z M 29 23 A 1.5 1.5 0 0 0 29 26 A 1.5 1.5 0 0 0 29 23 z M 34.5 23 A 1.5 1.5 0 0 0 34.5 26 A 1.5 1.5 0 0 0 34.5 23 z M 23.5 28 A 1.5 1.5 0 0 0 23.5 31 A 1.5 1.5 0 0 0 23.5 28 z M 29 28 A 1.5 1.5 0 0 0 29 31 A 1.5 1.5 0 0 0 29 28 z M 34.5 28 A 1.5 1.5 0 0 0 34.5 31 A 1.5 1.5 0 0 0 34.5 28 z M 23.5 33 A 1.5 1.5 0 0 0 23.5 36 A 1.5 1.5 0 0 0 23.5 33 z M 29 33 A 1.5 1.5 0 0 0 29 36 A 1.5 1.5 0 0 0 29 33 z M 34.5 33 A 1.5 1.5 0 0 0 34.5 36 A 1.5 1.5 0 0 0 34.5 33 z" fill="#0071BC" />
</svg>