<svg xmlns="http://www.w3.org/2000/svg" viewBox="0 0 48 48">
  <path d="M12.5 4C10.032499 4 8 6.0324991 8 8.5L8 39.5C8 41.967501 10.032499 44 12.5 44L35.5 44C37.967501 44 40 41.967501 40 39.5L40 18.5 A 1.50015 1.50015 0 0 0 39.560547 17.439453L39.544922 17.423828L26.560547 4.4394531 A 1.50015 1.50015 0 0 0 25.5 4L12.5 4 z M 12.5 7L24 7L24 15.5C24 17.967501 26.032499 20 28.5 20L37 20L37 39.5C37 40.346499 36.346499 41 35.5 41L12.5 41C11.653501 41 11 40.346499 11 39.5L11 8.5C11 7.6535009 11.653501 7 12.5 7 z M 27 9.1210938L34.878906 17L28.5 17C27.653501 17 27 16.346499 27 15.5L27 9.1210938 z M 24.476562 21.978516 A 1.50015 1.50015 0 0 0 23 23.5L23 36.5 A 1.50015 1.50015 0 1 0 26 36.5L26 23.5 A 1.50015 1.50015 0 0 0 24.476562 21.978516 z M 31.476562 26.978516 A 1.50015 1.50015 0 0 0 30 28.5L30 36.5 A 1.50015 1.50015 0 1 0 33 36.5L33 28.5 A 1.50015 1.50015 0 0 0 31.476562 26.978516 z M 17.476562 29.978516 A 1.50015 1.50015 0 0 0 16 31.5L16 36.5 A 1.50015 1.50015 0 1 0 19 36.5L19 31.5 A 1.50015 1.50015 0 0 0 17.476562 29.978516 z" fill="#8F92A1" />
</svg>