<svg xmlns="http://www.w3.org/2000/svg" xmlns:xlink="http://www.w3.org/1999/xlink" width="1024" height="1024" viewBox="0 0 1024 1024">
  <defs>
    <clipPath id="clip-path">
      <rect id="Rectangle_84" data-name="Rectangle 84" width="1024" height="1024" fill="none"/>
    </clipPath>
    <linearGradient id="linear-gradient" x1="0.066" y1="0.934" x2="0.934" y2="0.066" gradientUnits="objectBoundingBox">
      <stop offset="0" stop-color="#29abe2"/>
      <stop offset="1" stop-color="#0071bc"/>
    </linearGradient>
  </defs>
  <g id="Logo_Icon" data-name="Logo Icon" clip-path="url(#clip-path)">
    <path id="App_Icon_Placeholder" data-name="App Icon Placeholder" d="M357,0H667C769.8,0,821.2,0,876.5,17.5a217.6,217.6,0,0,1,130,130C1024,202.8,1024,254.2,1024,357V667c0,102.8,0,154.2-17.5,209.5a217.6,217.6,0,0,1-130,130C821.2,1024,769.8,1024,667,1024H357c-102.8,0-154.2,0-209.5-17.5a217.6,217.6,0,0,1-130-130C0,821.2,0,769.8,0,667V357C0,254.2,0,202.8,17.5,147.5a217.6,217.6,0,0,1,130-130C202.8,0,254.2,0,357,0h0" fill="url(#linear-gradient)"/>
    <path id="Path_112" data-name="Path 112" d="M524.5,576.3v1.2c0,.2-.1.5-.1.8v.4c-7.3,95-87.1,169.2-182.5,169.2-100.9,0-183-82.1-183-183a38.4,38.4,0,1,1,76.8,0A106.2,106.2,0,0,0,341.9,671c50,0,92.6-35.2,103.4-82.7L314.7,457.8a38.5,38.5,0,0,1,54.4-54.4L513.3,547.7l.8.9,1.4,1.5,1.2,1.5,1.1,1.5,1.1,1.7a6.4,6.4,0,0,1,.8,1.4,16.191,16.191,0,0,1,1,1.8c.2.6.5,1.1.7,1.6a13.4,13.4,0,0,1,.7,1.8l.6,1.8a8.4,8.4,0,0,1,.5,1.7,13.292,13.292,0,0,1,.5,1.9l.3,1.7.3,2a10.9,10.9,0,0,1,.1,1.8,12.8,12.8,0,0,1,.1,1.9ZM159.3,429.5v-1.2a2.2,2.2,0,0,1,.1-.8V427c7.2-94.9,87.1-169.1,182.5-169.1,100.9,0,183,82.1,183,183a38.4,38.4,0,0,1-76.8,0c0-58.5-47.7-106.1-106.2-106.1-50,0-92.6,35.2-103.4,82.6L369.1,548a38.5,38.5,0,0,1-54.4,54.4L170.5,458.1l-.9-.9-1.3-1.5a15.8,15.8,0,0,1-1.2-1.5l-1.1-1.5c-.4-.5-.7-1.1-1.1-1.7l-.9-1.4-.9-1.8-.7-1.6a590135.034,590135.034,0,0,0-1.4-3.6,15.4,15.4,0,0,0-.5-1.7c-.1-.6-.3-1.3-.4-1.9a12.2,12.2,0,0,1-.3-1.7,6.9,6.9,0,0,1-.3-2c-.1-.6-.1-1.2-.2-1.8a12.1,12.1,0,0,1-.1-1.9,14.8,14.8,0,0,1,.1-2.1Z" fill="#fff"/>
    <path id="Path_113" data-name="Path 113" d="M871,640.8a38.4,38.4,0,0,1,0,54.3,178.7,178.7,0,0,1-127.4,52.8c-99.3,0-180.1-80.8-180.1-180.2s80.8-180.1,180.1-180.1A178.7,178.7,0,0,1,871,440.4a38.431,38.431,0,0,1-54.4,54.3,103.3,103.3,0,1,0,0,146.1A38.5,38.5,0,0,1,871,640.8Z" fill="#fff"/>
  </g>
</svg>
