<?xml version="1.0" encoding="UTF-8"?>
<!DOCTYPE svg PUBLIC "-//W3C//DTD SVG 1.1//EN" "http://www.w3.org/Graphics/SVG/1.1/DTD/svg11.dtd">
<svg version="1.1" id="Layer_1" xmlns="http://www.w3.org/2000/svg" xmlns:xlink="http://www.w3.org/1999/xlink" x="0px" y="0px" width="32px" height="32px" viewBox="0 0 32 32" enable-background="new 0 0 32 32" xml:space="preserve">
  <g id="main">
    <g id="icon">
      <path d="M1.266,12.43L9.822,17.39L9.819,17.4L11.57,18.38L11.66,18.43L12.76,20.31L12.77,20.3L16.27,26.12L16.32,26.07L16.58,25.85L16.87,25.69L17.44,25.51L17.86,25.47L18.35,25.47L18.26,25.33L17.47,23.97L16.91,22.68L16.57,21.45L16.48,20.87L16.45,20.3L16.54,19.33L16.79,18.43L17.2,17.64L17.75,16.95L18.43,16.38L19.22,15.95L20.12,15.66L21.11,15.52L21.64,15.5L23.1,15.5L28.61,1.422z" fill="#FFFFFF"/>
      <path d="M28.42,0.9594L1.078,11.97L0.1281,12.35L1.016,12.87L9.009,17.5L9,17.51L9.575,17.83L11.3,18.8L12.32,20.56L12.65,21.12L12.67,21.1L15.94,26.53L16.09,26.31L16.32,26.07L16.58,25.85L16.67,25.8L13.19,20.04L12.87,19.49L12.86,19.5L12.23,18.42L27.23,3.563L22.56,15.5L23.63,15.5L29.08,1.603L29.5,0.525M11.48,17.76L10.38,17.13L10.08,16.96L2.403,12.52L26.61,2.766z" fill="#383838"/>
    </g>
    <g id="overlay">
      <path d="M20.487,31.5v-0.093h-0.24c-1.46,0,-2.74,-1.654,-2.74,-3.409c0,-0.208,0.056,-0.445,0.18,-0.504c0.035,-0.017,0.096,-0.027,0.132,-0.027h3.642l-0.083,-0.19c-0.272,-0.991,-0.756,-2.027,-1.438,-3.081c-0.967,-1.493,-1.479,-2.852,-1.479,-3.928c0,-1.585,1.062,-2.669,2.705,-2.76l0.113,-0.006h7.796c1.932,0,2.374,2.602,2.379,2.627c0.025,0.153,-0.057,0.299,-0.2,0.355c-0.03,0.012,-0.063,0.017,-0.103,0.017h-2.491l0.054,0.286c0.292,1.55,0.936,3.143,1.41,4.067c0.076,0.148,0.151,0.293,0.225,0.435l0.006,0.011c0.59,1.134,1.099,2.114,1.099,3.001c0,2.347,-1.384,3.199,-2.314,3.199H20.487z" fill="#FFFFFF"/>
      <path d="M31.254,20.483c-0.033,0.013,-0.068,0.017,-0.103,0.017l-8.244,0c-0.145,0,-0.269,-0.106,-0.299,-0.254c-0.003,-0.015,-0.268,-1.373,-1.195,-2.195c-0.477,-0.423,-0.507,-0.551,0.225,-0.551h7.437c1.898,0,2.36,2.512,2.378,2.627C31.477,20.273,31.402,20.425,31.254,20.483zM21.401,17.516c-1.719,0,-2.948,1.057,-2.948,2.78c0,1.129,0.572,2.536,1.485,3.946c2.595,4.006,1.769,7.258,0.348,7.258c0.279,0,0.59,0,0.864,0c1.957,0,7.971,0,8.015,0c1.01,0,2.311,-0.932,2.311,-3.194c0,-1.001,-0.648,-2.118,-1.328,-3.443c-0.579,-1.128,-1.225,-2.901,-1.458,-4.347M21.514,27.467h-3.655c-0.038,0,-0.098,0.011,-0.132,0.027c-0.142,0.067,-0.18,0.359,-0.18,0.503c0,1.697,1.222,3.457,2.739,3.457" fill="none" stroke="#ED8730" stroke-width="1" stroke-miterlimit="1"/>
      <path d="M21.614,23.5h5.953M22.6,25.533h5.853M23.38,27.5h6.053M23.38,29.5h5.853" fill="none" stroke="#787979" stroke-width="1" stroke-miterlimit="1"/>
    </g>
  </g>
</svg>
