<?xml version="1.0" encoding="UTF-8"?>
<!DOCTYPE svg PUBLIC "-//W3C//DTD SVG 1.1//EN" "http://www.w3.org/Graphics/SVG/1.1/DTD/svg11.dtd">
<svg version="1.1" id="Layer_1" xmlns="http://www.w3.org/2000/svg" xmlns:xlink="http://www.w3.org/1999/xlink" x="0px" y="0px" width="32px" height="32px" viewBox="0 0 32 32" enable-background="new 0 0 32 32" xml:space="preserve">
  <g id="icon">
    <path d="M30.974,15.67l-2.422,-1.435l2.332,-1.704l-2.512,-1.346l2.422,-1.704L14.559,0.6L6.127,4.637l2.601,1.615L6.037,7.597l1.767,1.219C8.042,8.806,8.28,8.8,8.521,8.8c4.803,0,8.575,1.848,9.459,4.458l0.22,0.4v3.996c0,0.019,0,0.038,-0.001,0.057l0.001,0.1v3.196c0,0.019,0,0.038,-0.001,0.057l0.001,0.1v0.469l4.342,2.737l8.342,-5.561l-2.243,-1.346L30.974,15.67z" fill="#FFFFFF"/>
    <path d="M32.022,15.69l-2.648,-1.439l2.67,-1.715l-2.757,-1.402l2.752,-1.71L14.563,0.039L4.955,4.682l2.66,1.619L4.989,7.638L6.944,8.87C7.46,8.825,7.987,8.8,8.521,8.8c0.064,0,0.127,0.002,0.191,0.002L7.011,7.73l1.608,-0.819l3.864,2.351c2.333,0.582,4.135,1.674,5.043,3.069l4.968,3.023l5.802,-3.605l1.743,0.886l-7.55,4.849L18.2,14.783v1.182l4.293,2.706l5.922,-3.804l1.645,0.894l-7.572,4.864L18.2,17.923v1.182l4.293,2.706l5.884,-3.78l1.671,0.878l-7.56,4.856l-4.289,-2.703c0,0.001,0,0.002,0,0.002l0.001,0.1v1.08l4.293,2.706l9.541,-6.129l-2.689,-1.412L32.022,15.69zM22.488,14.181L7.045,4.783l7.494,-3.622l15.504,8.326L22.488,14.181z" fill="#17AB4F"/>
    <path d="M16.498,11.183c0.082,-0.148,0.196,-0.279,0.338,-0.382l7.7,-4.833l-4.096,-2.213l-7.271,4.213c-0.31,0.218,-0.411,0.827,-0.413,1.197l0,0.169C14.281,9.747,15.563,10.385,16.498,11.183z" fill="#FFFFFF"/>
    <path d="M13.256,9.48l0,-0.312c0.002,-0.375,0.114,-0.71,0.192,-0.784l7,-4.056L23.543,6l-6.974,4.377l-0.028,0.019c-0.178,0.129,-0.326,0.291,-0.44,0.473c0.288,0.212,0.549,0.437,0.782,0.674c0.041,-0.128,0.121,-0.244,0.233,-0.328l8.41,-5.279l-5.097,-2.753l-7.513,4.353l-0.037,0.024c-0.588,0.413,-0.624,1.408,-0.625,1.607l0,0.042C12.601,9.287,12.934,9.379,13.256,9.48z" fill="#787979"/>
    <path d="M16.5,14.458h-0.025c0,-0.004,0.001,-0.008,0.001,-0.011c0,-2.18,-3.53,-3.946,-7.955,-3.946c-4.425,0,-8.012,1.767,-8.012,3.946c0,0.004,0.001,0.008,0.001,0.011H0.5c0,0,0,2.834,0,3.217c0,0.045,0.004,0.091,0.009,0.136H0.5c0,0,0,2.834,0,3.217c0,0.045,0.004,0.091,0.009,0.136H0.5c0,0,0,2.834,0,3.217c0,0.045,0.004,0.091,0.009,0.136H0.5c0,0,0,2.834,0,3.217c0,1.709,3.583,3.718,8.003,3.718c4.42,0,7.997,-2.009,7.997,-3.738c0,-0.447,0,-3.196,0,-3.196h-0.01c0.006,-0.052,0.01,-0.105,0.01,-0.157c0,-0.447,0,-3.196,0,-3.196h-0.01c0.006,-0.052,0.01,-0.105,0.01,-0.157c0,-0.447,0,-3.196,0,-3.196h-0.01c0.006,-0.052,0.01,-0.105,0.01,-0.157C16.5,17.207,16.5,14.458,16.5,14.458z" fill="#FFFFFF"/>
    <path d="M17,14.458h-0.024c0,-0.004,0.001,-0.008,0.001,-0.011c0,-2.493,-3.714,-4.446,-8.455,-4.446c-4.773,0,-8.512,1.953,-8.512,4.446c0,0.004,0.001,0.008,0.001,0.011H0v3.217c0,0.045,0.002,0.091,0.006,0.136H0v3.217c0,0.045,0.002,0.091,0.006,0.136H0v3.217c0,0.045,0.002,0.091,0.006,0.136H0v3.217c0,2.208,4.053,4.218,8.503,4.218c4.447,0,8.497,-2.02,8.497,-4.238v-3.196h-0.007c0.004,-0.052,0.007,-0.104,0.007,-0.157v-3.196h-0.007c0.004,-0.052,0.007,-0.104,0.007,-0.157v-3.196h-0.007c0.004,-0.052,0.007,-0.104,0.007,-0.157V14.458zM1,22.916c1.473,1.346,4.391,2.33,7.503,2.33c3.11,0,6.025,-0.988,7.497,-2.34v1.455c0,0.635,-0.81,1.448,-2.063,2.07c-1.495,0.743,-3.476,1.168,-5.434,1.168c-4.281,0,-7.503,-1.952,-7.503,-3.218V22.916zM13.937,23.077c-1.495,0.743,-3.476,1.168,-5.434,1.168c-4.281,0,-7.503,-1.952,-7.503,-3.218v-1.465c1.473,1.346,4.391,2.33,7.503,2.33c3.11,0,6.025,-0.988,7.497,-2.34v1.455C16,21.642,15.19,22.455,13.937,23.077zM13.937,19.724c-1.495,0.743,-3.476,1.168,-5.434,1.168c-4.281,0,-7.503,-1.952,-7.503,-3.218v-1.179c0.425,0.394,0.978,0.747,1.654,1.044c1.532,0.673,3.616,1.044,5.866,1.044c3.408,0,6.112,-0.798,7.479,-2.083v1.153C16,18.289,15.19,19.102,13.937,19.724zM8.521,11c4.041,0,7.455,1.578,7.455,3.446c0,1.76,-3.275,3.138,-7.455,3.138c-4.212,0,-7.512,-1.378,-7.512,-3.138C1.009,12.578,4.449,11,8.521,11zM13.937,29.783c-1.495,0.743,-3.476,1.168,-5.434,1.168C4.222,30.952,1,29,1,27.734v-1.465c1.473,1.346,4.391,2.33,7.503,2.33c3.11,0,6.025,-0.988,7.497,-2.34v1.455C16,28.348,15.19,29.161,13.937,29.783z" fill="#ED8730"/>
  </g>
</svg>
