<?xml version="1.0" encoding="UTF-8"?>
<!DOCTYPE svg PUBLIC "-//W3C//DTD SVG 1.1//EN" "http://www.w3.org/Graphics/SVG/1.1/DTD/svg11.dtd">
<svg version="1.1" id="Layer_1" xmlns="http://www.w3.org/2000/svg" xmlns:xlink="http://www.w3.org/1999/xlink" x="0px" y="0px" width="32px" height="32px" viewBox="0 0 32 32" enable-background="new 0 0 32 32" xml:space="preserve">
  <g id="icon">
    <path d="M14.913,10.5H30.5v6H17.407c0.025,-0.235,0.038,-0.473,0.038,-0.713C17.444,13.665,16.459,11.764,14.913,10.5zM9.5,1.5v6h21V1.5H9.5z" fill="#FFFFFF"/>
    <path d="M14.218,10H31v7H17.333c0.06,-0.328,0.095,-0.661,0.106,-1H30v-5H15.461C15.088,10.622,14.671,10.287,14.218,10zM31,1v7H9V1H31zM30,2H10v5h20V2z" fill="#383838"/>
    <path d="M16.515,12.371c0.264,-0.23,0.608,-0.371,0.985,-0.371c0.828,0,1.5,0.672,1.5,1.5c0,0.828,-0.672,1.5,-1.5,1.5c-0.035,0,-0.069,-0.003,-0.104,-0.005C17.285,14.049,16.978,13.161,16.515,12.371zM27.5,12c-0.828,0,-1.5,0.672,-1.5,1.5c0,0.828,0.672,1.5,1.5,1.5s1.5,-0.672,1.5,-1.5C29,12.672,28.328,12,27.5,12zM22.5,12c-0.828,0,-1.5,0.672,-1.5,1.5c0,0.828,0.672,1.5,1.5,1.5s1.5,-0.672,1.5,-1.5C24,12.672,23.328,12,22.5,12z" fill="#238BCB"/>
    <path d="M14,5h-3V4h3V5zM19,4h-3v1h3V4zM21,5h3V4h-3V5zM26,4v1h3V4H26z" fill="#787979"/>
    <path d="M15.844,15.787c0,2.92,-2.431,5.287,-5.431,5.287s-5.431,-2.367,-5.431,-5.287S7.414,10.5,10.414,10.5S15.844,12.867,15.844,15.787zM19.205,30.987c0,-5.098,-3.941,-9.891,-8.802,-9.891S1.6,25.889,1.6,30.987" fill="#FFFFFF" stroke="#383838" stroke-width="1.2" stroke-miterlimit="1"/>
  </g>
</svg>
