<?xml version="1.0" encoding="UTF-8"?>
<!DOCTYPE svg PUBLIC "-//W3C//DTD SVG 1.1//EN" "http://www.w3.org/Graphics/SVG/1.1/DTD/svg11.dtd">
<svg version="1.1" id="Layer_1" xmlns="http://www.w3.org/2000/svg" xmlns:xlink="http://www.w3.org/1999/xlink" x="0px" y="0px" width="32px" height="32px" viewBox="0 0 32 32" enable-background="new 0 0 32 32" xml:space="preserve">
  <g id="main">
    <g id="icon">
      <path d="M14.23,0.6375L13.49,0.7531L12.77,0.9375L12.08,1.188L11.43,1.503L10.81,1.875L10.23,2.306L9.697,2.791L9.213,3.319L8.781,3.897L8.406,4.513L8.091,5.166L7.838,5.853L7.653,6.569L7.538,7.309L7.5,8.075L7.538,8.841L7.653,9.581L7.838,10.3L8.091,10.98L8.406,11.64L8.781,12.25L9.213,12.83L9.697,13.36L10.23,13.84L10.81,14.28L11.43,14.65L12.08,14.96L12.77,15.21L13.49,15.4L14.23,15.51L15,15.55L15.77,15.51L16.51,15.4L17.23,15.21L17.92,14.96L18.58,14.65L19.19,14.27L19.77,13.84L20.3,13.36L20.79,12.83L21.22,12.25L21.59,11.64L21.91,10.98L22.16,10.3L22.35,9.581L22.46,8.841L22.5,8.075L22.46,7.309L22.35,6.569L22.16,5.853L21.91,5.166L21.59,4.513L21.22,3.897L20.79,3.319L20.3,2.791L19.77,2.306L19.19,1.875L18.58,1.503L17.92,1.188L17.23,0.9375L16.51,0.7531L15.77,0.6375L15,0.6M13.8,15.68L12.58,15.92L11.4,16.31L10.26,16.83L9.166,17.49L8.131,18.25L7.159,19.13L6.259,20.09L5.438,21.15L4.7,22.27L4.059,23.46L3.519,24.71L3.084,25.99L2.763,27.31L2.569,28.65L2.5,30L16.5,30L16.5,29.5L16.5,28.5L16.5,25.5L16.5,24.5L16.5,21.5L16.5,20.5L16.5,16.5L19.1,16.5L18.69,16.31L17.51,15.92L16.29,15.68L15.05,15.6z" fill="#FFFFFF"/>
      <path d="M14.2,0.04063L14.17,0.04063L14.14,0.04688L13.4,0.1594L13.37,0.1625L13.34,0.1719L12.62,0.3563L12.59,0.3625L12.57,0.3719L11.88,0.625L11.85,0.6344L11.82,0.6469L11.17,0.9625L11.14,0.975L11.12,0.9875L10.5,1.363L10.47,1.378L10.45,1.397L9.872,1.825L9.847,1.844L9.828,1.863L9.294,2.344L9.272,2.363L9.253,2.384L8.769,2.916L8.75,2.938L8.731,2.959L8.3,3.534L8.284,3.559L8.269,3.584L7.894,4.2L7.878,4.225L7.866,4.25L7.55,4.903L7.538,4.931L7.525,4.959L7.275,5.644L7.263,5.672L7.256,5.703L7.072,6.419L7.063,6.447L7.059,6.478L6.947,7.219L6.941,7.25L6.941,7.281L6.9,8.044L6.9,8.075L6.9,8.106L6.941,8.869L6.941,8.9L6.947,8.931L7.059,9.672L7.063,9.703L7.072,9.731L7.256,10.45L7.263,10.48L7.275,10.51L7.525,11.19L7.538,11.22L7.55,11.25L7.866,11.9L7.878,11.93L7.894,11.95L8.269,12.57L8.284,12.59L8.3,12.62L8.731,13.19L8.75,13.21L8.769,13.23L9.253,13.77L9.272,13.79L9.294,13.81L9.828,14.29L9.847,14.31L9.872,14.33L10.45,14.75L10.47,14.77L10.5,14.79L11.12,15.16L11.14,15.18L11.17,15.19L11.82,15.5L11.85,15.52L11.87,15.53L11.21,15.74L11.18,15.75L11.15,15.77L10.01,16.29L9.978,16.3L9.95,16.32L8.859,16.97L8.831,16.99L8.809,17L7.772,17.77L7.75,17.79L7.728,17.81L6.756,18.68L6.738,18.7L6.719,18.72L5.819,19.68L5.8,19.7L5.784,19.73L4.963,20.78L4.947,20.8L4.934,20.82L4.2,21.94L4.184,21.97L4.172,21.99L3.531,23.18L3.519,23.2L3.509,23.22L2.966,24.47L2.956,24.49L2.95,24.51L2.516,25.8L2.506,25.83L2.5,25.85L2.181,27.17L2.175,27.19L2.172,27.22L1.975,28.56L1.969,28.59L1.969,28.62L1.9,29.97L1.869,30.6L2.5,30.6L16.5,30.6L16.5,29.5L16.5,29.4L3.131,29.4L3.166,28.71L3.353,27.43L3.659,26.16L4.078,24.92L4.6,23.73L5.219,22.58L5.925,21.5L6.716,20.48L7.578,19.55L8.509,18.72L9.497,17.99L10.54,17.37L11.62,16.87L12.73,16.5L13.88,16.28L15.05,16.2L16.22,16.28L17.34,16.5L20.43,16.5L20.13,16.32L20.11,16.3L20.08,16.29L18.94,15.77L18.91,15.75L18.88,15.74L18.17,15.51L18.18,15.5L18.83,15.19L18.86,15.18L18.88,15.16L19.5,14.79L19.53,14.77L19.55,14.75L20.13,14.33L20.15,14.31L20.18,14.29L20.71,13.81L20.73,13.79L20.75,13.77L21.23,13.23L21.25,13.21L21.27,13.19L21.7,12.62L21.72,12.59L21.73,12.57L22.11,11.95L22.12,11.93L22.13,11.9L22.45,11.25L22.46,11.22L22.48,11.19L22.73,10.5L22.74,10.48L22.74,10.45L22.93,9.731L22.94,9.703L22.94,9.672L23.05,8.931L23.06,8.9L23.06,8.869L23.1,8.106L23.1,8.075L23.1,8.044L23.06,7.281L23.06,7.25L23.05,7.219L22.94,6.478L22.94,6.447L22.93,6.419L22.74,5.703L22.74,5.672L22.73,5.644L22.48,4.959L22.46,4.931L22.45,4.903L22.13,4.25L22.12,4.225L22.11,4.2L21.73,3.584L21.72,3.559L21.7,3.534L21.27,2.959L21.25,2.938L21.23,2.916L20.75,2.384L20.73,2.363L20.71,2.344L20.17,1.863L20.15,1.844L20.13,1.825L19.55,1.397L19.53,1.378L19.5,1.363L18.88,0.9875L18.86,0.975L18.83,0.9625L18.18,0.6469L18.15,0.6344L18.13,0.625L17.43,0.3719L17.41,0.3625L17.38,0.3563L16.66,0.1719L16.63,0.1625L16.6,0.1594L15.86,0.04688L15.83,0.04063L15.8,0.04063L15.03,0L15,-0L14.97,0M15.71,1.238L16.39,1.341L17.05,1.509L17.69,1.741L18.29,2.031L18.86,2.375L19.39,2.772L19.88,3.216L20.33,3.703L20.72,4.231L21.07,4.8L21.36,5.4L21.59,6.031L21.76,6.688L21.86,7.372L21.9,8.075L21.86,8.778L21.76,9.459L21.59,10.12L21.36,10.75L21.07,11.35L20.72,11.92L20.33,12.45L19.88,12.93L19.39,13.38L18.86,13.78L18.29,14.12L17.69,14.41L17.05,14.64L16.39,14.81L15.71,14.91L15,14.95L14.29,14.91L13.61,14.81L12.95,14.64L12.31,14.41L11.71,14.12L11.14,13.78L10.61,13.38L10.12,12.93L9.675,12.45L9.278,11.92L8.931,11.35L8.644,10.75L8.409,10.12L8.241,9.463L8.138,8.778L8.1,8.075L8.138,7.372L8.241,6.688L8.409,6.031L8.644,5.4L8.931,4.8L9.278,4.231L9.675,3.703L10.12,3.216L10.61,2.772L11.14,2.375L11.71,2.031L12.31,1.741L12.95,1.509L13.61,1.341L14.29,1.238L15,1.2M21.5,17.5L21.93,17.5L21.5,17.18z" fill="#383838"/>
      <path d="M14.25,20.64L13.5,30L16.5,30L15.75,20.67L16.5,18L13.5,18z" fill="#78797A"/>
    </g>
    <g id="overlay">
      <path d="M32,32H21v-1h11V32zM32,28H21v-1h11V28zM32,24H21v-1h11V24zM32,20H21v-1h11V20z" fill="#383838"/>
      <rect x="18" y="18" width="2" height="2" fill="#383838"/>
      <rect x="18" y="22" width="2" height="2" fill="#383838"/>
      <rect x="18" y="26" width="2" height="2" fill="#383838"/>
      <rect x="18" y="30" width="2" height="2" fill="#383838"/>
    </g>
  </g>
</svg>
