<?xml version="1.0" encoding="UTF-8"?>
<!DOCTYPE svg PUBLIC "-//W3C//DTD SVG 1.1//EN" "http://www.w3.org/Graphics/SVG/1.1/DTD/svg11.dtd">
<svg version="1.1" id="Layer_1" xmlns="http://www.w3.org/2000/svg" xmlns:xlink="http://www.w3.org/1999/xlink" x="0px" y="0px" width="32px" height="32px" viewBox="0 0 32 32" enable-background="new 0 0 32 32" xml:space="preserve">
  <g id="icon">
    <path d="M23.728,8.887c0,3.92,-3.453,9.753,-7.712,9.753s-7.712,-5.833,-7.712,-9.753S11.757,1.6,16.016,1.6S23.728,4.967,23.728,8.887zM28.5,31c0,-6.843,-5.596,-12.33,-12.5,-12.33S3.5,24.157,3.5,31" fill="#FFFFFF" stroke="#228BCB" stroke-width="1.1" stroke-miterlimit="1"/>
    <path d="M8.5,7.689c9.472,-4.457,8.88,2.276,14.8,-0.948" fill="#FFFFFF" stroke="#228BCB" stroke-width="1.1" stroke-miterlimit="1"/>
    <path d="M15.982,30.492c-0.027,0,-0.091,-0.008,-0.112,-0.084l-0.367,-1.317c-0.059,-0.213,-0.154,-0.646,-0.264,-1.148c-0.239,-1.093,-0.566,-2.59,-0.861,-3.351l-0.095,-0.247l-4.659,2.062c-0.182,0.081,-0.376,-0.087,-0.322,-0.278L11,19.938l1.794,-1.381l2.184,4.907c0.076,0.151,0.157,0.333,0.244,0.547l0.033,0.074l0.036,0.099c0.072,0.184,0.157,0.642,0.231,1.046c0.077,0.413,0.149,0.804,0.225,1.034l0.236,0.716l0.236,-0.716c0.076,-0.231,0.148,-0.621,0.225,-1.034c0.075,-0.405,0.159,-0.861,0.232,-1.046l0.073,-0.186l0.016,-0.035c0.082,-0.199,0.155,-0.362,0.222,-0.495l2.205,-4.909l1.71,1.379l1.778,6.198c0.054,0.191,-0.14,0.358,-0.322,0.278l-4.444,-1.967l-0.233,-0.103l-0.095,0.246c-0.294,0.761,-0.622,2.259,-0.861,3.353c-0.11,0.504,-0.204,0.935,-0.264,1.147l-0.366,1.317C16.073,30.484,16.009,30.492,15.982,30.492zM21.271,24.823l-1.125,-3.97l-0.626,-0.595l-1.423,3.167L21.271,24.823zM10.711,24.822l3.157,-1.397L12.46,20.26l-0.624,0.593L10.711,24.822z" fill="#238BCB"/>
  </g>
</svg>
