<?xml version="1.0" encoding="UTF-8"?>
<!DOCTYPE svg PUBLIC "-//W3C//DTD SVG 1.1//EN" "http://www.w3.org/Graphics/SVG/1.1/DTD/svg11.dtd">
<svg version="1.1" id="Layer_1" xmlns="http://www.w3.org/2000/svg" xmlns:xlink="http://www.w3.org/1999/xlink" x="0px" y="0px" width="32px" height="32px" viewBox="0 0 32 32" enable-background="new 0 0 32 32" xml:space="preserve">
  <g id="main">
    <g id="icon">
      <path d="M14.23,0.6375L13.46,0.7531L12.72,0.9375L12.02,1.188L11.34,1.5L10.7,1.872L10.11,2.297L9.563,2.775L9.066,3.294L8.622,3.859L8.234,4.459L7.909,5.094L7.65,5.759L7.459,6.447L7.344,7.159L7.303,7.888L7.344,8.644L7.459,9.431L7.65,10.24L7.909,11.07L8.234,11.89L8.622,12.7L9.066,13.48L9.563,14.23L10.11,14.94L10.7,15.59L11.34,16.17L12.02,16.67L12.72,17.08L13.46,17.38L14.23,17.58L15.02,17.64L15.8,17.58L16.5,17.4L16.5,16.5L18.25,16.5L18.69,16.17L19.33,15.59L19.92,14.94L20.47,14.23L20.97,13.48L21.41,12.7L21.8,11.89L22.12,11.07L22.38,10.24L22.57,9.431L22.69,8.644L22.73,7.888L22.69,7.159L22.57,6.447L22.38,5.759L22.12,5.094L21.8,4.459L21.41,3.859L20.97,3.294L20.47,2.775L19.92,2.297L19.33,1.872L18.69,1.5L18.02,1.188L17.31,0.9375L16.57,0.7531L15.8,0.6375L15.02,0.6M13.72,17.73L12.48,17.92L11.28,18.22L10.13,18.63L9.041,19.15L8.013,19.77L7.05,20.48L6.163,21.27L5.353,22.14L4.634,23.09L4.009,24.11L3.481,25.19L3.063,26.32L2.753,27.51L2.566,28.73L2.5,30L16.5,30L16.5,29.5L16.5,28.5L16.5,25.5L16.5,24.5L16.5,21.5L16.5,20.5L16.5,17.77L16.28,17.73L15,17.67z" fill="#FFFFFF"/>
      <path d="M14.2,0.09063L14.18,0.09063L14.15,0.09375L13.38,0.2094L13.36,0.2125L13.33,0.2188L12.59,0.4031L12.57,0.4094L12.54,0.4188L11.83,0.6688L11.81,0.6781L11.78,0.6875L11.11,1.003L11.08,1.013L11.06,1.025L10.43,1.397L10.4,1.409L10.38,1.425L9.791,1.85L9.769,1.866L9.75,1.881L9.203,2.359L9.181,2.375L9.166,2.394L8.669,2.916L8.65,2.934L8.634,2.956L8.191,3.519L8.172,3.541L8.159,3.563L7.772,4.163L7.756,4.184L7.744,4.209L7.422,4.844L7.409,4.869L7.397,4.894L7.138,5.559L7.128,5.584L7.122,5.613L6.931,6.303L6.922,6.331L6.919,6.359L6.8,7.069L6.797,7.1L6.794,7.128L6.756,7.856L6.753,7.888L6.756,7.916L6.794,8.672L6.797,8.697L6.8,8.722L6.916,9.513L6.919,9.534L6.925,9.556L7.116,10.37L7.119,10.39L7.125,10.41L7.384,11.23L7.391,11.25L7.4,11.27L7.722,12.09L7.731,12.11L7.738,12.12L8.125,12.93L8.134,12.95L8.144,12.97L8.588,13.75L8.597,13.77L8.606,13.78L9.103,14.54L9.116,14.55L9.128,14.57L9.675,15.28L9.691,15.29L9.706,15.31L10.3,15.96L10.32,15.98L10.33,15.99L10.97,16.58L10.99,16.59L11.01,16.61L11.69,17.11L11.71,17.13L11.74,17.14L12.21,17.42L11.15,17.69L11.12,17.69L11.1,17.7L9.947,18.12L9.922,18.13L9.9,18.14L8.806,18.65L8.781,18.67L8.759,18.68L7.728,19.29L7.706,19.31L7.684,19.33L6.722,20.03L6.703,20.05L6.681,20.07L5.794,20.86L5.775,20.88L5.756,20.9L4.95,21.77L4.931,21.79L4.916,21.81L4.197,22.76L4.181,22.78L4.166,22.8L3.541,23.82L3.525,23.84L3.516,23.87L2.988,24.95L2.975,24.97L2.966,25L2.547,26.13L2.538,26.16L2.528,26.18L2.222,27.37L2.216,27.39L2.209,27.42L2.022,28.65L2.016,28.68L2.016,28.71L1.95,29.97L1.922,30.55L2.5,30.55L16.5,30.55L16.5,29.5L16.5,29.45L3.078,29.45L3.113,28.79L3.294,27.62L3.588,26.49L3.988,25.4L4.491,24.38L5.088,23.4L5.775,22.5L6.547,21.66L7.397,20.9L8.316,20.23L9.3,19.64L10.35,19.14L11.44,18.75L12.59,18.46L13.78,18.28L15,18.22L16.23,18.28L16.5,18.32L16.5,16.82L16.4,16.86L15.71,17.03L15.02,17.09L14.32,17.03L13.63,16.86L12.97,16.58L12.32,16.21L11.69,15.74L11.09,15.2L10.53,14.58L10.01,13.91L9.534,13.19L9.109,12.44L8.741,11.67L8.428,10.88L8.181,10.1L8,9.328L7.891,8.588L7.856,7.888L7.891,7.219L8,6.566L8.172,5.931L8.413,5.322L8.713,4.734L9.069,4.178L9.481,3.656L9.944,3.172L10.45,2.731L11,2.334L11.59,1.988L12.22,1.697L12.88,1.463L13.57,1.294L14.28,1.188L15.02,1.15L15.75,1.188L16.46,1.294L17.15,1.463L17.81,1.697L18.44,1.988L19.03,2.334L19.58,2.731L20.09,3.172L20.55,3.656L20.96,4.178L21.32,4.734L21.62,5.322L21.86,5.931L22.03,6.566L22.14,7.219L22.18,7.888L22.14,8.588L22.03,9.328L21.85,10.1L21.6,10.88L21.29,11.67L20.92,12.44L20.5,13.19L20.02,13.91L19.5,14.58L18.94,15.2L18.34,15.74L17.72,16.21L17.21,16.5L19.14,16.5L19.7,15.99L19.72,15.98L19.73,15.96L20.33,15.31L20.34,15.29L20.36,15.28L20.9,14.57L20.92,14.55L20.93,14.54L21.43,13.78L21.44,13.77L21.45,13.75L21.89,12.97L21.9,12.95L21.91,12.93L22.29,12.12L22.3,12.11L22.31,12.09L22.63,11.27L22.64,11.25L22.65,11.23L22.91,10.41L22.91,10.39L22.92,10.37L23.11,9.556L23.11,9.534L23.12,9.513L23.23,8.722L23.24,8.697L23.24,8.672L23.28,7.916L23.28,7.888L23.28,7.856L23.24,7.128L23.23,7.1L23.23,7.069L23.11,6.359L23.11,6.331L23.1,6.303L22.91,5.613L22.9,5.584L22.89,5.559L22.63,4.894L22.63,4.869L22.61,4.844L22.29,4.209L22.28,4.184L22.26,4.163L21.88,3.563L21.86,3.541L21.84,3.519L21.4,2.956L21.38,2.934L21.37,2.916L20.87,2.394L20.85,2.375L20.83,2.359L20.28,1.881L20.26,1.866L20.24,1.85L19.65,1.425L19.63,1.409L19.61,1.397L18.97,1.025L18.95,1.013L18.93,1.003L18.25,0.6875L18.23,0.6781L18.2,0.6688L17.49,0.4188L17.47,0.4094L17.44,0.4031L16.7,0.2188L16.68,0.2125L16.65,0.2094L15.88,0.09375L15.86,0.09063L15.83,0.09063L15.04,0.05L15.02,0.05L14.99,0.05z" fill="#228BCB"/>
      <path d="M11.88,5.222L10.61,5.5L9.163,5.978L7.5,6.688L17.02,6.078L16.23,5.753L15.54,5.494L14.78,5.281L13.94,5.144L12.98,5.113M17.02,6.078L17.51,6.281L18.15,6.491L18.82,6.622L19.55,6.644L20.35,6.525L21.26,6.234L22.3,5.741L17.02,6.078z" fill="#FFFFFF"/>
      <path d="M12.92,4.566L11.82,4.675L11.79,4.678L11.76,4.684L10.49,4.963L10.47,4.969L10.44,4.978L8.991,5.456L8.969,5.466L8.947,5.475L7.284,6.184L7.716,7.194L9.356,6.494L10.76,6.031L11.96,5.766L12.99,5.666L13.88,5.691L14.67,5.819L15.37,6.016L16.03,6.266L17.3,6.791L17.32,6.8L17.34,6.806L17.98,7.016L18.01,7.025L18.05,7.031L18.72,7.163L18.76,7.172L18.81,7.172L19.53,7.194L19.58,7.194L19.63,7.188L20.43,7.069L20.48,7.063L20.52,7.05L21.43,6.759L21.47,6.747L21.5,6.731L22.54,6.238L22.06,5.244L21.06,5.722L20.23,5.988L19.52,6.094L18.88,6.075L18.29,5.959L17.7,5.766L16.44,5.244L16.43,5.241L16.43,5.238L15.73,4.978L15.71,4.972L15.69,4.966L14.93,4.75L14.9,4.744L14.87,4.738L14.03,4.6L13.99,4.594L13.95,4.594L12.99,4.566L12.96,4.563z" fill="#228BCB"/>
      <path d="M10,18.94L8.303,25.13L8.303,25.27L8.375,25.37L8.491,25.43L8.625,25.41L13.28,23.34L13.38,23.59L13.6,24.28L13.83,25.14L14.24,26.94L14.5,28.09L14.87,29.41L14.93,29.48L14.98,29.49L15.04,29.48L15.09,29.41L15.46,28.09L15.73,26.94L16.13,25.14L16.36,24.28L16.5,23.86L16.5,21.5L16.5,21.33L15.99,22.47L15.77,22.96L15.75,23L15.68,23.18L15.44,24.23L15.22,25.26L14.98,25.98L14.75,25.26L14.52,24.23L14.29,23.18L14.26,23.08L14.22,23.01L13.98,22.46L11.79,17.56M12.87,22.43L9.713,23.82L10.84,19.85L11.46,19.26z" fill="#238BCB"/>
    </g>
    <g id="overlay">
      <path d="M32,32H21v-1h11V32zM32,28H21v-1h11V28zM32,24H21v-1h11V24zM32,20H21v-1h11V20z" fill="#383838"/>
      <rect x="18" y="18" width="2" height="2" fill="#383838"/>
      <rect x="18" y="22" width="2" height="2" fill="#383838"/>
      <rect x="18" y="26" width="2" height="2" fill="#383838"/>
      <rect x="18" y="30" width="2" height="2" fill="#383838"/>
    </g>
  </g>
</svg>
