<?xml version="1.0" encoding="UTF-8"?>
<!DOCTYPE svg PUBLIC "-//W3C//DTD SVG 1.1//EN" "http://www.w3.org/Graphics/SVG/1.1/DTD/svg11.dtd">
<svg version="1.1" id="Layer_1" xmlns="http://www.w3.org/2000/svg" xmlns:xlink="http://www.w3.org/1999/xlink" x="0px" y="0px" width="32px" height="32px" viewBox="0 0 32 32" enable-background="new 0 0 32 32" xml:space="preserve">
  <g id="icon">
    <path d="M5.5,5.5v9.74c0.214,-0.125,0.445,-0.247,0.699,-0.364C7.708,14.182,9.677,13.8,11.742,13.8c2.065,0,4.027,0.383,5.525,1.079c2.577,1.197,2.962,2.872,2.962,3.764c0,0.142,-0.01,0.284,-0.029,0.425v2.799c0,1.379,-1.064,2.614,-2.997,3.478c-0.131,0.059,-0.266,0.115,-0.403,0.17V27.5h13.7V5.5H5.5z" fill="#FFFFFF"/>
    <rect x="5.5" y="1.5" width="25" height="4" fill="#C8C6C4"/>
    <path d="M5,1v4v1v9.562c0.287,-0.204,0.618,-0.402,1,-0.59V6h24v21H16.8v0.674c0,0.111,-0.007,0.219,-0.02,0.326H31V6V5V1H5zM30,5H6V2h24V5z" fill="#383838"/>
    <path d="M18,24.939V25h-0.107C17.93,24.98,17.965,24.959,18,24.939zM28,15v10h-4V15H28zM27,16h-2v8h2V16zM20.163,18H22v6h-2v-1.121c-0.196,0.482,-0.532,0.936,-1,1.35V25h4v-8h-3.212C19.987,17.354,20.101,17.695,20.163,18z" fill="#787979"/>
    <path d="M12.767,12.745l2.181,1.381c-0.97,-0.207,-2.022,-0.319,-3.104,-0.325L12.767,12.745zM27.918,7.381l-4.619,0.771l0.165,0.986l2.77,-0.463l-3.55,4.082l-3.203,-2.029l-3.252,3.742c0.347,0.115,0.678,0.243,0.99,0.386l2.453,-2.823l3.202,2.028l4.077,-4.688l0.049,2.858l1,-0.017L27.918,7.381z" fill="#228BCB"/>
    <path d="M15.1,24.5c0,0,0,2.836,0,3.174c0,1.305,-3.041,2.821,-6.798,2.821c-3.757,0,-6.802,-1.516,-6.802,-2.806C1.5,27.4,1.5,24.5,1.5,24.5M15.123,24.493c0,1.713,-3.012,2.859,-6.786,2.859c-3.775,0,-6.835,-1.146,-6.835,-2.859c0,-1.012,1.304,-2.137,3.404,-2.589M18.5,18.7c0,0,0,2.825,0,3.167c0,1.323,-3.041,2.859,-6.798,2.859c-3.757,0,-6.802,-1.536,-6.802,-2.843c0,-0.293,0,-3.182,0,-3.182M11.742,15.5c3.775,0,6.786,1.407,6.786,3.143s-3.012,2.897,-6.786,2.897c-3.775,0,-6.835,-1.162,-6.835,-2.897S7.968,15.5,11.742,15.5z" fill="#FFFFFF" stroke="#ED8730" stroke-width="1" stroke-miterlimit="1"/>
  </g>
</svg>
