<?xml version="1.0" encoding="UTF-8"?>
<!DOCTYPE svg PUBLIC "-//W3C//DTD SVG 1.1//EN" "http://www.w3.org/Graphics/SVG/1.1/DTD/svg11.dtd">
<svg version="1.1" id="Layer_1" xmlns="http://www.w3.org/2000/svg" xmlns:xlink="http://www.w3.org/1999/xlink" x="0px" y="0px" width="32px" height="32px" viewBox="0 0 32 32" enable-background="new 0 0 32 32" xml:space="preserve">
  <g id="icon">
    <path d="M30.5,1.5l0,0.033V23.5H18.181c-0.112,-0.142,-0.228,-0.282,-0.347,-0.419c-0.783,-0.902,-1.68,-1.658,-2.648,-2.238c1.422,-1.286,2.257,-3.105,2.257,-5.056c0,-3.436,-2.582,-6.291,-5.944,-6.805V4.033V1.5H30.5z" fill="#FFFFFF"/>
    <path d="M31,1v23H18.554c-0.225,-0.318,-0.465,-0.625,-0.72,-0.919c-0.024,-0.028,-0.049,-0.054,-0.073,-0.081H30V2H12v2.033h-1V1H31z" fill="#383838"/>
    <path d="M15,6v4.574c0.16,0.135,0.314,0.277,0.461,0.426H28V6H15zM27,10H16V7h11V10z" fill="#228BCB"/>
    <path d="M11.6,9h1.4v0.385C12.554,9.211,12.085,9.081,11.6,9zM13,7h-3v1h3V7zM13,5h-3v1h3V5zM18,19h7v-1h-7V19zM17.439,16c-0.011,0.339,-0.046,0.672,-0.106,1H27v-1H17.439z" fill="#787979"/>
    <path d="M15.844,15.787c0,2.92,-2.431,5.287,-5.431,5.287s-5.431,-2.367,-5.431,-5.287S7.414,10.5,10.414,10.5S15.844,12.867,15.844,15.787zM19.205,30.987c0,-5.098,-3.941,-9.891,-8.802,-9.891S1.6,25.889,1.6,30.987" fill="#FFFFFF" stroke="#383838" stroke-width="1.2" stroke-miterlimit="1"/>
  </g>
</svg>
