<?xml version="1.0" encoding="UTF-8"?>
<!DOCTYPE svg PUBLIC "-//W3C//DTD SVG 1.1//EN" "http://www.w3.org/Graphics/SVG/1.1/DTD/svg11.dtd">
<svg version="1.1" id="Layer_1" xmlns="http://www.w3.org/2000/svg" xmlns:xlink="http://www.w3.org/1999/xlink" x="0px" y="0px" width="32px" height="32px" viewBox="0 0 32 32" enable-background="new 0 0 32 32" xml:space="preserve">
  <g id="icon">
    <polygon points="5.5,5.5 5.5,14 18,14 18,27.5 30.5,27.5 30.5,5.5" fill="#FFFFFF" stroke-linejoin="miter"/>
    <rect x="5.5" y="1.5" width="25" height="4" fill="#C8C6C4"/>
    <path d="M5,1v4v1v8h1V6h24v21H18v1h13V6V5V1H5zM30,5H6V2h24V5z" fill="#383838"/>
    <path d="M19,25h4v-8h-4V25zM20,18h2v6h-2V18zM24,15v10h4V15H24zM27,24h-2v-8h2V24z" fill="#787979"/>
    <path d="M28,12.216l-1,0.017l-0.049,-2.858l-4.077,4.688l-3.202,-2.028L17.965,14H16.64l2.842,-3.27l3.203,2.029l3.55,-4.082l-2.77,0.463l-0.165,-0.986l4.619,-0.771L28,12.216zM11.67,14h3.078l-1.981,-1.255L11.67,14z" fill="#228BCB"/>
    <path d="M13.444,30.5L16.5,28.1V15.5H4.4l-2.9,3.056V30.5H13.444zM13.438,18.576L16.514,15.5" fill="#FFFFFF" stroke="#ED8730" stroke-width="1" stroke-miterlimit="1"/>
    <polyline points="1.7,18.5 13.5,18.5 13.5,30.3" fill="none" stroke="#ED8730" stroke-width="1" stroke-miterlimit="1" stroke-linejoin="miter"/>
    <polygon points="8.522,18.556 8.522,22.522 6.5,22.522 6.5,18.556 9.5,15.5 11.55,15.5" fill="#FFFFFF" stroke="#787979" stroke-width="1" stroke-miterlimit="1" stroke-linejoin="miter"/>
    <path d="M3.5,29v-3M5.5,28.545V26M7.5,29v-3" fill="none" stroke="#787979" stroke-width="1" stroke-miterlimit="1"/>
  </g>
</svg>
