<?xml version="1.0" encoding="UTF-8"?>
<!DOCTYPE svg PUBLIC "-//W3C//DTD SVG 1.1//EN" "http://www.w3.org/Graphics/SVG/1.1/DTD/svg11.dtd">
<svg version="1.1" id="Layer_1" xmlns="http://www.w3.org/2000/svg" xmlns:xlink="http://www.w3.org/1999/xlink" x="0px" y="0px" width="32px" height="32px" viewBox="0 0 32 32" enable-background="new 0 0 32 32" xml:space="preserve">
  <g id="icon">
    <path d="M14.081,17.317c0,2.576,-2.096,4.665,-4.68,4.665s-4.68,-2.088,-4.68,-4.665s2.095,-4.665,4.68,-4.665S14.081,14.741,14.081,17.317zM17.2,31c0,-4.503,-3.582,-8.987,-7.769,-8.987S1.6,26.497,1.6,31" fill="#FFFFFF" stroke="#228BCB" stroke-width="1.1" stroke-miterlimit="1"/>
    <path d="M5.5,5.5v6.636c1.093,-0.846,2.464,-1.351,3.951,-1.351c3.562,0,6.46,2.891,6.46,6.444c0,1.688,-0.657,3.271,-1.789,4.452c1.997,1.332,3.555,3.438,4.349,5.819H30.5V5.5H5.5z" fill="#FFFFFF"/>
    <rect x="5.5" y="1.5" width="25" height="4" fill="#C8C6C4"/>
    <path d="M5,1v4v1v6.565c0.306,-0.291,0.641,-0.552,1,-0.78V6h24v21H18.291c0.126,0.328,0.237,0.661,0.334,1H31V6V5V1H5zM30,5H6V2h24V5z" fill="#383838"/>
    <path d="M15.662,19H18v6h-0.706c-0.216,-0.346,-0.449,-0.681,-0.698,-1H17v-4h-1.716C15.437,19.679,15.564,19.345,15.662,19zM14.122,21.681c0.303,0.202,0.596,0.424,0.878,0.66v-1.813C14.752,20.943,14.459,21.33,14.122,21.681zM28,15v10h-4V15H28zM27,16h-2v8h2V16zM19,17h4v8h-4V17zM20,24h2v-6h-2V24z" fill="#787979"/>
    <path d="M27.918,7.381l-4.619,0.771l0.165,0.986l2.77,-0.463l-3.55,4.082l-3.203,-2.029l-3.513,4.043l-0.775,-0.491c0.249,0.481,0.439,0.997,0.561,1.539l0.405,0.257l3.513,-4.043l3.202,2.028l4.077,-4.688l0.049,2.858l1,-0.017L27.918,7.381z" fill="#228BCB"/>
  </g>
</svg>
