<?xml version="1.0" encoding="UTF-8"?>
<!DOCTYPE svg PUBLIC "-//W3C//DTD SVG 1.1//EN" "http://www.w3.org/Graphics/SVG/1.1/DTD/svg11.dtd">
<svg version="1.1" id="Layer_1" xmlns="http://www.w3.org/2000/svg" xmlns:xlink="http://www.w3.org/1999/xlink" x="0px" y="0px" width="32px" height="32px" viewBox="0 0 32 32" enable-background="new 0 0 32 32" xml:space="preserve">
  <g id="main">
    <g id="icon">
      <path d="M8.741,9.628L8.225,9.706L7.725,9.834L7.247,10.01L6.363,10.48L5.594,11.12L4.959,11.89L4.478,12.77L4.303,13.24L4.175,13.74L4.097,14.26L4.069,14.79L4.097,15.32L4.175,15.83L4.303,16.33L4.478,16.8L4.959,17.68L5.594,18.45L6.366,19.09L7.247,19.57L7.725,19.74L8.225,19.87L8.741,19.94L9.275,19.97L9.806,19.94L10.32,19.87L10.82,19.74L11.3,19.57L12.18,19.09L12.95,18.45L13.59,17.68L14.07,16.8L14.24,16.33L14.37,15.83L14.45,15.32L14.48,14.79L14.45,14.26L14.37,13.74L14.24,13.24L14.07,12.77L13.59,11.89L12.95,11.12L12.18,10.48L11.3,10.01L10.82,9.834L10.32,9.706L9.806,9.628L9.272,9.6M8.441,20.07L7.597,20.23L6.775,20.5L5.981,20.87L5.225,21.32L4.506,21.85L3.831,22.46L3.206,23.13L2.638,23.86L2.128,24.64L1.681,25.46L1.306,26.33L1.003,27.22L0.7844,28.13L0.6469,29.06L0.6,30L17.4,30L17.19,29.74L16.61,28.82L16.13,27.82L15.79,26.77L15.58,25.65L15.5,24.5L15.55,23.58L15.58,23.39L15.37,23.13L14.75,22.46L14.09,21.85L13.38,21.32L12.62,20.87L11.83,20.5L11.02,20.23L10.17,20.07L9.306,20.01z" fill="#FFFFFF"/>
      <path d="M8.713,9.078L8.684,9.078L8.659,9.084L8.141,9.163L8.116,9.166L8.088,9.172L7.591,9.3L7.563,9.306L7.538,9.316L7.059,9.491L7.022,9.503L6.984,9.525L6.103,10L6.056,10.03L6.016,10.06L5.244,10.69L5.203,10.73L5.169,10.77L4.534,11.53L4.5,11.58L4.475,11.63L3.997,12.5L3.975,12.54L3.963,12.58L3.788,13.05L3.778,13.08L3.772,13.11L3.644,13.6L3.638,13.63L3.631,13.66L3.553,14.17L3.55,14.2L3.547,14.23L3.522,14.76L3.519,14.79L3.522,14.81L3.547,15.34L3.55,15.37L3.553,15.4L3.631,15.92L3.638,15.94L3.644,15.97L3.772,16.47L3.778,16.49L3.788,16.52L3.963,16.99L3.978,17.03L3.997,17.07L4.475,17.95L4.5,17.99L4.534,18.04L5.172,18.8L5.203,18.84L5.244,18.88L6.016,19.51L6.056,19.54L6.103,19.57L6.763,19.93L6.603,19.98L6.575,19.99L6.544,20L5.753,20.37L5.725,20.38L5.7,20.39L4.944,20.84L4.919,20.86L4.897,20.88L4.178,21.41L4.156,21.42L4.138,21.44L3.466,22.05L3.447,22.06L3.428,22.08L2.806,22.75L2.788,22.77L2.775,22.79L2.203,23.52L2.191,23.54L2.178,23.56L1.666,24.34L1.653,24.36L1.644,24.38L1.197,25.2L1.188,25.22L1.178,25.24L0.8,26.11L0.7906,26.13L0.7844,26.15L0.4844,27.04L0.475,27.07L0.4688,27.09L0.25,28L0.2438,28.03L0.2375,28.05L0.1031,28.98L0.1,29.01L0.09688,29.03L0.05,29.97L0.02188,30.55L0.6,30.55L17.85,30.55L17.19,29.74L17,29.45L1.178,29.45L1.194,29.12L1.325,28.24L1.534,27.37L1.819,26.53L2.178,25.71L2.6,24.92L3.084,24.18L3.625,23.48L4.219,22.85L4.853,22.28L5.531,21.78L6.238,21.35L6.975,21.01L7.734,20.77L8.513,20.61L9.306,20.56L10.1,20.61L10.88,20.77L11.63,21.01L12.36,21.35L13.07,21.78L13.74,22.28L14.37,22.85L14.95,23.48L15.48,24.18L15.52,24.22L15.55,23.58L15.68,22.69L15.69,22.66L15.16,22.08L15.14,22.07L15.12,22.05L14.46,21.44L14.44,21.43L14.42,21.41L13.7,20.88L13.68,20.86L13.66,20.85L12.9,20.39L12.88,20.38L12.85,20.37L12.06,20L12.03,19.99L12.01,19.98L11.81,19.91L12.44,19.57L12.49,19.54L12.53,19.51L13.3,18.88L13.34,18.84L13.38,18.8L14.01,18.04L14.05,17.99L14.07,17.95L14.55,17.07L14.57,17.03L14.58,16.99L14.76,16.52L14.77,16.49L14.78,16.47L14.91,15.97L14.91,15.94L14.92,15.92L14.99,15.4L15,15.37L15,15.34L15.03,14.81L15.03,14.79L15.03,14.76L15,14.23L15,14.2L14.99,14.17L14.92,13.66L14.91,13.63L14.91,13.6L14.78,13.11L14.77,13.08L14.76,13.05L14.58,12.58L14.57,12.54L14.55,12.5L14.07,11.62L14.05,11.58L14.01,11.53L13.38,10.77L13.34,10.73L13.3,10.69L12.53,10.06L12.49,10.03L12.44,10L11.56,9.525L11.53,9.503L11.49,9.491L11.01,9.316L10.98,9.306L10.96,9.3L10.46,9.172L10.43,9.166L10.4,9.163L9.888,9.084L9.859,9.078L9.831,9.078L9.3,9.05L9.272,9.05L9.247,9.05M9.75,10.18L10.21,10.24L10.66,10.36L11.07,10.51L11.88,10.94L12.56,11.51L13.13,12.2L13.57,12.99L13.72,13.41L13.83,13.85L13.9,14.31L13.93,14.79L13.9,15.26L13.83,15.72L13.72,16.17L13.57,16.58L13.13,17.38L12.56,18.06L11.88,18.63L11.07,19.06L10.66,19.21L10.21,19.33L9.75,19.4L9.275,19.42L8.797,19.4L8.334,19.33L7.891,19.21L7.475,19.06L6.672,18.63L5.984,18.06L5.416,17.38L4.981,16.58L4.828,16.17L4.716,15.72L4.644,15.26L4.622,14.79L4.644,14.31L4.716,13.85L4.828,13.41L4.981,12.99L5.416,12.2L5.984,11.51L6.672,10.94L7.475,10.51L7.888,10.36L8.334,10.24L8.797,10.18L9.272,10.15z" fill="#383838"/>
      <path d="M8.678,23.5L8.081,30L10.47,30L9.869,23.53L10.47,21.67L8.081,21.67z" fill="#78797A"/>
      <path d="M17.51,0.5656L15.95,0.7594L14.54,1.063L13.32,1.466L12.31,1.956L11.89,2.228L11.54,2.516L11.26,2.819L11.06,3.134L10.93,3.463L10.89,3.8L10.89,3.813L10.88,3.813L10.88,6.403L10.93,6.678L11.07,6.953L11.29,7.228L11.59,7.503L12.42,8.025L13.52,8.497L13.23,8.528L13.03,8.956L13.72,9.463L14.34,10.04L14.89,10.7L15.35,11.42L15.73,12.19L16,13.02L16.17,13.88L16.23,14.79L16.19,15.49L16.09,16.18L15.92,16.85L15.68,17.49L15.38,18.11L15.03,18.69L14.62,19.23L14.15,19.74L14.94,20.29L16.32,20.45L16.47,20.46L16.59,20.21L17.04,19.47L17.56,18.78L18.14,18.14L18.78,17.56L19.47,17.04L20.21,16.59L21,16.21L21.83,15.91L22.69,15.68L23.58,15.55L24.5,15.5L25.65,15.58L26.05,15.65L26.05,14.92L26.05,14.91L26.03,14.62L25.94,14.35L26.71,14.11L27.4,13.84L28.01,13.55L28.53,13.24L28.94,12.92L29.25,12.59L29.43,12.27L29.5,11.94L29.5,9.397L29.49,9.397L29.49,9.353L29.45,9.022L29.33,8.7L29.13,8.391L28.87,8.091L28.53,7.806L28.14,7.538L27.17,7.053L27.37,6.719L27.43,6.388L27.43,3.813L27.41,3.813L27.41,3.8L27.37,3.463L27.24,3.134L27.04,2.819L26.77,2.516L26.42,2.228L26.01,1.956L25.01,1.466L23.79,1.063L22.39,0.7594L20.85,0.5656L19.18,0.5z" fill="#FFFFFF"/>
      <path d="M17.36,0.075L15.69,0.2875L14.19,0.6313L12.9,1.088L12.34,1.353L11.85,1.644L11.42,1.959L11.06,2.291L10.77,2.644L10.56,3.016L10.43,3.4L10.39,3.8L10.39,3.809L10.38,3.809L10.38,6.403L10.42,6.709L10.53,7.013L10.7,7.309L10.95,7.6L11.65,8.156L12.6,8.666L12.59,8.691L13.48,9.263L13.53,9.034L14.82,9.406L16.2,9.678L17.66,9.844L19.16,9.9L20.48,9.856L21.75,9.731L22.95,9.528L24.07,9.259L25.08,8.928L25.97,8.547L26.71,8.119L27.3,7.653L28.02,8.047L28.55,8.472L28.88,8.909L28.96,9.131L28.99,9.353L28.96,9.584L28.85,9.813L28.68,10.04L28.45,10.27L27.8,10.69L26.92,11.08L25.8,11.41L24.48,11.67L22.96,11.84L21.26,11.9L19.3,11.82L17.59,11.6L16.15,11.27L15,10.86L15.39,11.5L15.72,12.18L16.99,12.5L18.37,12.72L19.8,12.85L21.26,12.9L22.95,12.84L24.54,12.67L25.99,12.4L27.26,12.03L28.27,11.59L29,11.13L29,11.94L28.96,12.11L28.85,12.3L28.43,12.7L27.75,13.12L26.83,13.53L25.69,13.89L24.37,14.18L22.88,14.38L21.23,14.45L19.88,14.4L18.57,14.26L17.31,14.03L16.14,13.71L16.23,14.78L16.23,14.79L17.36,15.07L18.58,15.28L19.88,15.41L21.23,15.45L22.38,15.42L23.48,15.33L24.55,15.17L25.55,14.96L25.5,15.19L25.38,15.42L25.26,15.55L25.65,15.58L26.55,15.75L26.55,14.91L26.55,14.91L26.54,14.69L27.28,14.43L27.96,14.14L28.55,13.82L29.05,13.48L29.45,13.12L29.75,12.74L29.94,12.34L30,11.94L30,9.397L29.99,9.397L29.99,9.353L29.95,8.994L29.85,8.644L29.68,8.303L29.44,7.975L29.14,7.659L28.78,7.363L27.86,6.816L27.93,6.388L27.93,3.809L27.91,3.809L27.91,3.8L27.86,3.4L27.73,3.016L27.53,2.644L27.24,2.291L26.88,1.959L26.46,1.644L25.96,1.353L25.41,1.088L24.13,0.6313L22.64,0.2875L20.98,0.075L19.18,-0M20.82,1.066L22.31,1.25L23.63,1.538L24.75,1.903L25.66,2.331L26.34,2.803L26.58,3.05L26.76,3.3L26.87,3.55L26.91,3.8L26.87,4.031L26.77,4.263L26.6,4.491L26.37,4.716L25.72,5.144L24.83,5.531L23.72,5.863L22.4,6.119L20.88,6.284L19.18,6.344L17.46,6.284L15.93,6.119L14.6,5.863L13.48,5.531L12.58,5.144L11.93,4.716L11.7,4.491L11.53,4.263L11.43,4.031L11.39,3.8L11.43,3.55L11.53,3.3L11.72,3.05L11.96,2.803L12.64,2.331L13.56,1.903L14.7,1.538L16.03,1.25L17.53,1.066L19.18,1M12.04,5.984L12.83,6.353L13.74,6.659L14.73,6.909L15.79,7.1L16.9,7.238L18.04,7.319L19.18,7.344L20.87,7.288L22.46,7.122L23.91,6.85L25.18,6.478L26.19,6.038L26.93,5.563L26.93,6.388L26.89,6.559L26.78,6.75L26.36,7.153L25.68,7.569L24.76,7.975L23.63,8.338L22.3,8.631L20.8,8.828L19.16,8.9L17.63,8.838L16.14,8.653L14.74,8.353L13.48,7.953L12.54,7.525L11.89,7.103L11.51,6.719L11.41,6.55L11.38,6.403L11.38,5.559M15.27,18.31L16.53,18.42L17.81,18.45L17.86,18.45L18.14,18.14L18.78,17.56L18.98,17.41L17.81,17.45L15.73,17.36M14.15,19.74L14.92,20.28L15.65,20.89L16.24,20.94L16.59,20.21L16.74,19.95L15.97,19.92L14.23,19.66z" fill="#ED8730"/>
    </g>
    <g id="overlay">
      <circle cx="24.5" cy="24.5" r="7" fill="#FFFFFF" stroke="#EE3D3B" stroke-width="1" stroke-miterlimit="1"/>
      <path d="M20,24.5h9" fill="none" stroke="#EE3D3B" stroke-width="1" stroke-miterlimit="1"/>
    </g>
  </g>
</svg>
