<?xml version="1.0" encoding="UTF-8"?>
<!DOCTYPE svg PUBLIC "-//W3C//DTD SVG 1.1//EN" "http://www.w3.org/Graphics/SVG/1.1/DTD/svg11.dtd">
<svg version="1.1" id="Layer_1" xmlns="http://www.w3.org/2000/svg" xmlns:xlink="http://www.w3.org/1999/xlink" x="0px" y="0px" width="32px" height="32px" viewBox="0 0 32 32" enable-background="new 0 0 32 32" xml:space="preserve">
  <g id="icon">
    <path d="M15.478,15.786c0,2.864,-2.33,5.186,-5.204,5.186s-5.204,-2.322,-5.204,-5.186S7.399,10.6,10.273,10.6S15.478,12.922,15.478,15.786zM18.945,31c0,-5.007,-3.982,-9.992,-8.638,-9.992S1.6,25.993,1.6,31" fill="#FFFFFF" stroke="#383838" stroke-width="1.1" stroke-miterlimit="1"/>
    <polygon points="11.467,31 9.08,31 9.677,24.504 9.08,22.673 11.467,22.673 10.87,24.524" fill="#78797A" stroke-linejoin="miter"/>
    <path d="M30.486,10.397c0,-0.015,0.003,-0.029,0.003,-0.043c0,-0.895,-0.882,-1.707,-2.32,-2.301c0.171,-0.222,0.262,-0.446,0.262,-0.665c0,-0.361,0,-2.577,0,-2.577h-0.025c0,-0.003,0.001,-0.006,0.001,-0.01c0,-1.823,-3.652,-3.301,-8.229,-3.301c-4.577,0,-8.288,1.478,-8.288,3.301c0,0.003,0.001,0.006,0.001,0.01h-0.01c0,0,0,2.285,0,2.593c0,0.721,1.016,1.508,2.639,2.094l-0.286,0.031c-0.09,0.139,-0.157,0.281,-0.201,0.427c1.92,1.236,3.196,3.387,3.196,5.831c0,1.903,-0.765,3.668,-2.079,4.95c0.269,0.171,0.531,0.358,0.787,0.556c0.887,0.135,1.844,0.213,2.844,0.213c4.572,0,8.273,-1.619,8.273,-3.013c0,-0.361,0,-2.578,0,-2.578h-0.001c0,-0.003,0.001,-0.005,0.001,-0.008c0,-0.191,-0.04,-0.379,-0.118,-0.561l-0.002,0C29.088,14.746,30.5,13.8,30.5,12.939c0,-0.361,0,-2.543,0,-2.543H30.486z" fill="#FFFFFF"/>
    <path d="M30.989,10.397c0,-0.015,0,-0.029,0,-0.043c0,-0.971,-0.751,-1.86,-2.129,-2.539c0.047,-0.141,0.071,-0.283,0.071,-0.428V4.81h-0.025c0,-0.003,0,-0.006,0,-0.01c0,-2.167,-3.753,-3.801,-8.729,-3.801c-5.01,0,-8.788,1.634,-8.788,3.801c0,0.003,0,0.006,0,0.01h-0.009l0,2.593c0,0.824,0.784,1.617,2.222,2.264c-0.003,0.008,-0.005,0.017,-0.008,0.025c0.31,0.168,0.604,0.36,0.883,0.572c0.008,-0.077,0.026,-0.154,0.056,-0.231c1.628,0.561,3.607,0.867,5.626,0.867c3.573,0,6.81,-0.96,8.137,-2.248c1.082,0.504,1.694,1.114,1.694,1.701c0,1.223,-2.955,2.543,-7.729,2.543c-2.766,0,-4.924,-0.437,-6.261,-1.04c0.285,0.411,0.525,0.854,0.717,1.323c1.604,0.485,3.608,0.717,5.544,0.717c2.311,0,4.441,-0.308,6,-0.867c0.771,-0.277,1.333,-0.586,1.74,-0.905v0.815c0,0.883,-3.205,2.513,-7.773,2.513c-1.794,0,-3.608,-0.267,-5.083,-0.741c0.055,0.35,0.084,0.709,0.084,1.074c0,0.001,0,0.002,0,0.004c1.44,0.414,3.176,0.663,5,0.663c1.546,0,3.03,-0.18,4.322,-0.488c-0.094,1.206,-3.036,2.484,-7.743,2.484c-0.735,0,-1.427,-0.031,-2.073,-0.087c-0.132,0.33,-0.288,0.648,-0.468,0.953c0.834,0.09,1.694,0.135,2.541,0.135c2.315,0,4.45,-0.308,6.011,-0.867c0.766,-0.274,1.327,-0.581,1.734,-0.898v0.808c0,0.883,-3.205,2.513,-7.773,2.513c-1.212,0,-2.433,-0.123,-3.553,-0.348c-0.026,0.026,-0.051,0.054,-0.078,0.079c0.523,0.334,1.024,0.721,1.498,1.155c0.688,0.074,1.403,0.114,2.133,0.114c4.673,0,8.773,-1.642,8.773,-3.513v-2.578c0,-0.003,0,-0.005,0,-0.008c0,-0.071,-0.004,-0.143,-0.012,-0.214c2.076,-0.655,3.461,-1.665,3.461,-2.753v-2.543H30.989zM20.177,2c4.555,0,7.729,1.476,7.729,2.801c0,1.223,-2.955,2.543,-7.729,2.543c-4.811,0,-7.788,-1.32,-7.788,-2.543C12.389,3.476,15.587,2,20.177,2zM27.931,7.387c0,0.883,-3.205,2.513,-7.773,2.513c-2.041,0,-4.109,-0.346,-5.674,-0.948c-1.446,-0.557,-2.104,-1.193,-2.104,-1.548v-0.844c1.571,1.216,4.767,1.785,7.797,1.785c2.311,0,4.441,-0.308,6,-0.867c0.779,-0.28,1.346,-0.593,1.754,-0.916V7.387z" fill="#ED8730"/>
  </g>
</svg>
