<?xml version="1.0" encoding="UTF-8"?>
<!DOCTYPE svg PUBLIC "-//W3C//DTD SVG 1.1//EN" "http://www.w3.org/Graphics/SVG/1.1/DTD/svg11.dtd">
<svg version="1.1" id="Layer_1" xmlns="http://www.w3.org/2000/svg" xmlns:xlink="http://www.w3.org/1999/xlink" x="0px" y="0px" width="32px" height="32px" viewBox="0 0 32 32" enable-background="new 0 0 32 32" xml:space="preserve">
  <g id="icon">
    <path d="M16,3L3.5,12.4v18.1h10v-4.5c0,-1.381,1.119,-2.5,2.5,-2.5h0c1.381,0,2.5,1.119,2.5,2.5v4.5h10V12.6L16,3z" fill="#FFFFFF"/>
    <path d="M3.5,12.8v17.7h10v-4.5c0,-1.381,1.119,-2.5,2.5,-2.5h0c1.381,0,2.5,1.119,2.5,2.5v4.5h10V12.6" fill="none" stroke="#383838" stroke-width="1" stroke-miterlimit="1"/>
    <polygon points="0.8,12.2 15.986,0.687 31.2,12.1 29.92,13.728 15.986,3.421 2.152,13.928" fill="#FFFFFF" stroke="#228BCB" stroke-width="1" stroke-miterlimit="1" stroke-linejoin="miter"/>
    <path d="M10.5,27.5H6.5v-4h4V27.5zM25.5,23.5h-4v4h4V23.5zM25.5,16.5h-4v4h4V16.5zM18.5,16.5h-5v4h5V16.5zM10.5,16.5H6.5v4h4V16.5z" fill="#FFFFFF" stroke="#228BCB" stroke-width="1" stroke-miterlimit="1"/>
    <circle cx="16" cy="10.5" r="3" fill="#FFFFFF" stroke="#383838" stroke-width="1" stroke-miterlimit="1"/>
    <polyline points="16,8.6 16,10.5 17.4,11.7" fill="#FFFFFF" stroke="#383838" stroke-width="1" stroke-miterlimit="1" stroke-linejoin="miter"/>
  </g>
</svg>
