<?xml version="1.0" encoding="UTF-8"?>
<!DOCTYPE svg PUBLIC "-//W3C//DTD SVG 1.1//EN" "http://www.w3.org/Graphics/SVG/1.1/DTD/svg11.dtd">
<svg version="1.1" id="Layer_1" xmlns="http://www.w3.org/2000/svg" xmlns:xlink="http://www.w3.org/1999/xlink" x="0px" y="0px" width="32px" height="32px" viewBox="0 0 32 32" enable-background="new 0 0 32 32" xml:space="preserve">
  <g id="icon">
    <path d="M8.534,30.5H6.466c-0.533,0,-0.966,-0.432,-0.966,-0.966V27.5h4v2.034C9.5,30.068,9.068,30.5,8.534,30.5z" fill="#78797B" stroke="#383838" stroke-width="1" stroke-miterlimit="1"/>
    <path d="M24.534,30.5h-2.068c-0.533,0,-0.966,-0.432,-0.966,-0.966V27.5h4v2.034C25.5,30.068,25.068,30.5,24.534,30.5z" fill="#78797B" stroke="#383838" stroke-width="1" stroke-miterlimit="1"/>
    <path d="M27.5,11c-0.019,-6.146,-0.028,-5.228,-0.197,-5.653c-0.122,-0.305,-0.266,-0.519,-0.571,-0.845c-0.497,-0.525,-1.345,-0.982,-2.499,-1.463c-2.05,-0.859,-3.986,-1.264,-7.199,-1.513c-0.524,-0.038,-2.517,-0.059,-3.092,-0.026c-1.956,0.114,-3.515,0.349,-5.179,0.777c-1.947,0.501,-3.179,1.035,-4.108,1.78c-0.613,0.49,-0.968,0.997,-1.132,1.607C3.476,5.845,3.506,5.57,3.5,10.3v2.015v13.97c0,0.76,0.454,1.215,1.015,1.215h21.97c0.56,0,1.015,-0.454,1.015,-1.215v-13.97V11z" fill="#F7DA8E" stroke="#E57428" stroke-width="1" stroke-miterlimit="1"/>
    <path d="M24.783,14.5H6.217c-0.396,0,-0.717,-0.321,-0.717,-0.717V8.217c0,-0.396,0.321,-0.717,0.717,-0.717h18.567c0.396,0,0.717,0.321,0.717,0.717v5.567C25.5,14.179,25.179,14.5,24.783,14.5z" fill="#92CBEE" stroke="#0964B0" stroke-width="1" stroke-miterlimit="1"/>
    <line x1="15.5" y1="7.5" x2="15.5" y2="14.6" fill="#92CBEE" stroke="#0964B0" stroke-width="1" stroke-miterlimit="1"/>
    <path d="M9,5c0,0.552,-0.448,1,-1,1s-1,-0.448,-1,-1s0.448,-1,1,-1S9,4.448,9,5zM22,4c-0.552,0,-1,0.448,-1,1s0.448,1,1,1s1,-0.448,1,-1S22.552,4,22,4zM18.417,4h-6.833c-0.322,0,-0.583,0.261,-0.583,0.583v0.833c0,0.322,0.261,0.583,0.583,0.583h6.833c0.322,0,0.583,-0.261,0.583,-0.583v-0.833C19,4.261,18.739,4,18.417,4z" fill="#383838"/>
    <path d="M12.5,24.5h6M12.5,22.5h6M12.5,20.5h6M12.5,18.5h6" fill="none" stroke="#383838" stroke-width="1" stroke-linecap="round" stroke-miterlimit="1"/>
    <path d="M3.533,18.5h6.365c0.298,0,0.56,-0.195,0.646,-0.48l0.312,-1.039c0.086,-0.285,0.348,-0.48,0.646,-0.48h7.972c0.309,0,0.579,0.211,0.654,0.511l0.245,0.979c0.075,0.3,0.345,0.511,0.654,0.511H27.5" fill="none" stroke="#E57428" stroke-width="1" stroke-miterlimit="1"/>
    <path d="M9.5,23c0,0.828,-0.672,1.5,-1.5,1.5s-1.5,-0.672,-1.5,-1.5s0.672,-1.5,1.5,-1.5S9.5,22.172,9.5,23zM23,21.5c-0.828,0,-1.5,0.672,-1.5,1.5s0.672,1.5,1.5,1.5s1.5,-0.672,1.5,-1.5S23.828,21.5,23,21.5z" fill="#F7DA8E" stroke="#E57428" stroke-width="1" stroke-miterlimit="1"/>
  </g>
</svg>
