<?xml version="1.0" encoding="UTF-8"?>
<!DOCTYPE svg PUBLIC "-//W3C//DTD SVG 1.1//EN" "http://www.w3.org/Graphics/SVG/1.1/DTD/svg11.dtd">
<svg version="1.1" id="Layer_1" xmlns="http://www.w3.org/2000/svg" xmlns:xlink="http://www.w3.org/1999/xlink" x="0px" y="0px" width="16px" height="16px" viewBox="0 0 16 16" enable-background="new 0 0 16 16" xml:space="preserve">
  <g id="icon">
    <path d="M3.977,15.5h-0.954c-0.289,0,-0.523,-0.234,-0.523,-0.523V13.5h2v1.477C4.5,15.266,4.266,15.5,3.977,15.5z" fill="#FFFFFF" stroke="#787979" stroke-width="1" stroke-miterlimit="1"/>
    <path d="M12.977,15.5h-0.954c-0.289,0,-0.523,-0.234,-0.523,-0.523V13.5h2v1.477C13.5,15.266,13.266,15.5,12.977,15.5z" fill="#FFFFFF" stroke="#787979" stroke-width="1" stroke-miterlimit="1"/>
    <path d="M14.5,5.657c-0.011,-3.33,-0.015,-2.833,-0.107,-3.063c-0.066,-0.165,-0.144,-0.281,-0.31,-0.458c-0.269,-0.284,-0.728,-0.532,-1.353,-0.793c-1.11,-0.466,-2.159,-0.685,-3.899,-0.82c-0.284,-0.021,-1.364,-0.032,-1.675,-0.014C6.097,0.571,5.253,0.698,4.351,0.93c-1.055,0.272,-1.722,0.561,-2.225,0.965c-0.332,0.265,-0.524,0.54,-0.613,0.871c-0.026,0.099,-0.01,-0.051,-0.013,2.512v0.094v7.47c0,0.412,0.246,0.658,0.55,0.658H13.95c0.304,0,0.55,-0.246,0.55,-0.658v-7.47V5.657z" fill="#FFFFFF" stroke="#383838" stroke-width="1" stroke-miterlimit="1"/>
    <path d="M12.642,7H3.358C3.16,7,3,6.84,3,6.642V4.358C3,4.16,3.16,4,3.358,4h9.283c0.198,0,0.358,0.16,0.358,0.358v2.283C13,6.84,12.84,7,12.642,7z" fill="#FFFFFF" stroke="#228BCB" stroke-width="1" stroke-miterlimit="1"/>
    <line x1="8" y1="4" x2="8" y2="7" fill="#FFFFFF" stroke="#228BCB" stroke-width="1" stroke-miterlimit="1"/>
    <path d="M5,2.5c0,0.276,-0.224,0.5,-0.5,0.5s-0.5,-0.224,-0.5,-0.5s0.224,-0.5,0.5,-0.5S5,2.224,5,2.5zM11.5,2c-0.276,0,-0.5,0.224,-0.5,0.5s0.224,0.5,0.5,0.5s0.5,-0.224,0.5,-0.5S11.776,2,11.5,2zM9.716,2H6.284C6.127,2,6,2.127,6,2.284v0.431c0,0.157,0.127,0.284,0.284,0.284h3.431c0.157,0,0.284,-0.127,0.284,-0.284v-0.431C10,2.127,9.873,2,9.716,2z" fill="#78797A"/>
    <path d="M6.8,12h2.4M6.8,10.5h2.4" fill="none" stroke="#383838" stroke-width="1" stroke-linecap="round" stroke-miterlimit="1"/>
    <path d="M1.4,9.5h3.53c0.161,0,0.303,-0.106,0.35,-0.26l0.173,-0.479c0.046,-0.155,0.189,-0.261,0.35,-0.261h4.379c0.168,0,0.314,0.114,0.355,0.277l0.136,0.445c0.041,0.163,0.187,0.277,0.355,0.277H14.6" fill="none" stroke="#383838" stroke-width="1" stroke-miterlimit="1"/>
    <path d="M4.6,11.2c0,0.442,-0.358,0.8,-0.8,0.8s-0.8,-0.358,-0.8,-0.8s0.358,-0.8,0.8,-0.8S4.6,10.758,4.6,11.2zM12.2,10.4c-0.442,0,-0.8,0.358,-0.8,0.8s0.358,0.8,0.8,0.8s0.8,-0.358,0.8,-0.8S12.642,10.4,12.2,10.4z" fill="#ED8730"/>
  </g>
</svg>
