<?xml version="1.0" encoding="UTF-8"?>
<!DOCTYPE svg PUBLIC "-//W3C//DTD SVG 1.1//EN" "http://www.w3.org/Graphics/SVG/1.1/DTD/svg11.dtd">
<svg version="1.1" id="Layer_1" xmlns="http://www.w3.org/2000/svg" xmlns:xlink="http://www.w3.org/1999/xlink" x="0px" y="0px" width="32px" height="32px" viewBox="0 0 32 32" enable-background="new 0 0 32 32" xml:space="preserve">
  <g id="icon">
    <polygon points="16.333,3.5 15.373,4.172 2.604,18.189 1.5,20.637 2.22,22.701 4.188,24.189 18.037,28.525 19.19,28.179 30.351,14.417 30.494,13.485 29.054,12.861 28.91,9.26 30.35,7.484 30.11,6.62" fill="#FFFFFF" stroke-linejoin="miter"/>
    <path d="M18.402,28.673c-2.089,-0.928,-1.819,-5.537,0.096,-6.384" fill="#FFFFFF" stroke="#787979" stroke-width="1" stroke-miterlimit="1" opacity="0.4"/>
    <path d="M2.345,18.736c-2.141,2.237,0.333,4.854,2.275,5.501c2.304,0.768,13.417,4.288,13.417,4.288c0.419,0.135,0.877,-0.002,1.153,-0.346l11.161,-13.762c0.311,-0.388,0.11,-0.967,-0.374,-1.079" fill="none" stroke="#383838" stroke-width="1" stroke-linecap="round" stroke-miterlimit="1" stroke-linejoin="round"/>
    <path d="M30.302,13.773c-1.344,-0.864,-1.056,-5.472,0.096,-6.384" fill="none" stroke="#383838" stroke-width="1" stroke-miterlimit="1"/>
    <path d="M29.881,6.714L16.775,3.67c-0.451,-0.105,-0.923,0.044,-1.232,0.388c0,0,-12.526,13.92,-13.198,14.688c0.182,-0.202,1.31,-0.54,2.659,-0.077c1.35,0.463,12.457,4,12.457,4c0.419,0.135,0.877,-0.002,1.153,-0.346l11.641,-14.53C30.566,7.405,30.365,6.826,29.881,6.714z" fill="#FFFFFF" stroke="#383838" stroke-width="1" stroke-linecap="round" stroke-miterlimit="1" stroke-linejoin="round"/>
    <path d="M21.034,12.979c-0.336,-0.087,-1.104,-0.283,-1.707,-0.437c-0.603,-0.154,-1.824,-0.457,-2.716,-0.675c-2.227,-0.544,-3.106,-0.771,-3.274,-0.844c-0.078,-0.036,-0.186,-0.106,-0.24,-0.157c-0.087,-0.081,-0.102,-0.115,-0.102,-0.227c0,-0.207,0.105,-0.364,0.633,-0.961c0.264,-0.3,0.642,-0.734,0.84,-0.964c0.627,-0.737,0.681,-0.785,0.996,-0.888c0.123,-0.042,0.219,-0.05,0.456,-0.042c0.264,0.008,0.408,0.039,1.197,0.241c0.492,0.126,1.614,0.406,2.491,0.622c3.691,0.911,4.507,1.121,4.72,1.219c0.216,0.098,0.321,0.23,0.321,0.398c-0.003,0.165,-0.039,0.23,-0.351,0.6c-0.414,0.496,-1.524,1.763,-1.677,1.917c-0.18,0.177,-0.402,0.275,-0.732,0.32l-0.243,0.034L21.034,12.979z" fill="#FFFFFF" stroke="#228BCB" stroke-width="1" stroke-miterlimit="1"/>
  </g>
</svg>
