<?xml version="1.0" encoding="UTF-8"?>
<!DOCTYPE svg PUBLIC "-//W3C//DTD SVG 1.1//EN" "http://www.w3.org/Graphics/SVG/1.1/DTD/svg11.dtd">
<svg version="1.1" id="Layer_1" xmlns="http://www.w3.org/2000/svg" xmlns:xlink="http://www.w3.org/1999/xlink" x="0px" y="0px" width="32px" height="32px" viewBox="0 0 32 32" enable-background="new 0 0 32 32" xml:space="preserve">
  <g id="icon">
    <path d="M6.5,6.5v5.052c0.878,-0.448,1.871,-0.702,2.923,-0.702c3.553,0,6.444,2.884,6.444,6.428c0,1.681,-0.653,3.258,-1.78,4.435c1.701,1.136,3.081,2.835,3.94,4.787H30.5V6.5H6.5z" fill="#FFFFFF"/>
    <path d="M31,6v21H18.234c-0.131,-0.34,-0.278,-0.674,-0.44,-1H30V7H7v4.323c-0.35,0.142,-0.684,0.314,-1,0.513V6H31z" fill="#383838"/>
    <path d="M30.5,1.5v5H6.5V1.5H30.5z" fill="#92CBEE"/>
    <path d="M6,1v6h25V1H6zM30,6H7V2h23V6z" fill="#0964B0"/>
    <path d="M7,11.323V11h1.043C7.683,11.079,7.335,11.187,7,11.323zM25,12v4h5v1h-5v4h5v1h-5v4h-1v-4h-5v4h-1v-4h-3.508c-0.133,-0.099,-0.267,-0.195,-0.405,-0.287c0.214,-0.224,0.411,-0.462,0.59,-0.713H18v-4h-2.14c-0.015,-0.341,-0.055,-0.675,-0.121,-1H18v-4h-4.905c-0.68,-0.472,-1.456,-0.817,-2.292,-1H12V7h1v4h5V7h1v4h5V7h1v4h5v1H25zM24,17h-5v4h5V17zM24,12h-5v4h5V12z" fill="#787979" opacity="0.6"/>
    <path d="M14.117,17.278c0,2.584,-2.102,4.678,-4.694,4.678s-4.694,-2.094,-4.694,-4.678S6.831,12.6,9.423,12.6S14.117,14.694,14.117,17.278zM17.245,31c0,-4.516,-3.592,-9.012,-7.791,-9.012S1.6,26.484,1.6,31" fill="#FFFFFF" stroke="#383838" stroke-width="1.1" stroke-miterlimit="1"/>
    <polygon points="10.5,31 8.346,31 8.885,25.305 8.346,23.7 10.5,23.7 9.962,25.322" fill="#78797A" stroke-linejoin="miter"/>
  </g>
</svg>
