<?xml version="1.0" encoding="UTF-8"?>
<!DOCTYPE svg PUBLIC "-//W3C//DTD SVG 1.1//EN" "http://www.w3.org/Graphics/SVG/1.1/DTD/svg11.dtd">
<svg version="1.1" id="Layer_1" xmlns="http://www.w3.org/2000/svg" xmlns:xlink="http://www.w3.org/1999/xlink" x="0px" y="0px" width="32px" height="32px" viewBox="0 0 32 32" enable-background="new 0 0 32 32" xml:space="preserve">
  <g id="icon">
    <path d="M19,7.5h12.5v22H0.5V7.5h12.467" fill="#FFFFFF" stroke="#383838" stroke-width="1" stroke-miterlimit="1"/>
    <path d="M17.5,9.5h-3V4c0,-0.828,0.672,-1.5,1.5,-1.5h0c0.828,0,1.5,0.672,1.5,1.5V9.5z" fill="#C8C6C4" stroke="#383838" stroke-width="1" stroke-linecap="round" stroke-miterlimit="1"/>
    <path d="M10.516,11.5c-2.273,0,-4.116,1.855,-4.116,4.144s1.843,4.144,4.116,4.144s4.116,-1.855,4.116,-4.144S12.789,11.5,10.516,11.5zM16.499,27c0,-3.432,-2.568,-7.233,-5.983,-7.233S4.533,23.568,4.533,27" fill="#FFFFFF" stroke="#228BCB" stroke-width="1.1" stroke-miterlimit="1"/>
    <path d="M19,14.5h9M19,17.5h9M19,20.5h9M19,23.5h9" fill="none" stroke="#787979" stroke-width="1" stroke-miterlimit="1"/>
  </g>
</svg>
