<?xml version="1.0" encoding="UTF-8"?>
<!DOCTYPE svg PUBLIC "-//W3C//DTD SVG 1.1//EN" "http://www.w3.org/Graphics/SVG/1.1/DTD/svg11.dtd">
<svg version="1.1" id="Layer_1" xmlns="http://www.w3.org/2000/svg" xmlns:xlink="http://www.w3.org/1999/xlink" x="0px" y="0px" width="32px" height="32px" viewBox="0 0 32 32" enable-background="new 0 0 32 32" xml:space="preserve">
  <g id="main">
    <g id="icon">
      <path d="M14.22,0.6375L13.47,0.7531L12.75,0.9375L12.07,1.188L11.41,1.503L10.79,1.875L10.22,2.306L9.684,2.791L9.203,3.319L8.772,3.897L8.397,4.513L8.081,5.166L7.828,5.853L7.644,6.569L7.531,7.309L7.491,8.075L7.531,8.841L7.644,9.581L7.828,10.3L8.081,10.98L8.397,11.64L8.772,12.25L9.203,12.83L9.684,13.36L10.22,13.84L10.79,14.28L11.41,14.65L12.07,14.96L12.75,15.21L13.47,15.4L14.22,15.51L14.98,15.55L15.75,15.51L16.49,15.4L17.21,15.21L17.9,14.96L18.55,14.65L19.17,14.27L19.74,13.84L20.28,13.36L20.76,12.83L21.19,12.25L21.57,11.64L21.88,10.98L22.13,10.3L22.32,9.581L22.43,8.841L22.47,8.075L22.43,7.309L22.32,6.569L22.13,5.853L21.88,5.166L21.57,4.513L21.19,3.897L20.76,3.319L20.28,2.791L19.74,2.306L19.17,1.875L18.55,1.503L17.9,1.188L17.21,0.9375L16.49,0.7531L15.75,0.6375L14.98,0.6M13.78,15.68L12.57,15.92L11.39,16.31L10.25,16.83L9.156,17.49L8.122,18.25L7.153,19.13L6.253,20.09L5.431,21.15L4.697,22.27L4.056,23.46L3.516,24.71L3.081,25.99L2.763,27.31L2.566,28.65L2.5,30L14.5,30L14.5,28.83L14.54,28.37L14.68,27.94L14.88,27.55L15.18,27.19L15.21,27.16L19.71,22.68L19.59,21.64L19.63,20.6L19.72,20.03L19.86,19.46L20.28,18.4L20.84,17.46L19.8,16.83L18.67,16.31L17.49,15.92L16.28,15.68L15.03,15.6z" fill="#FFFFFF"/>
      <path d="M14.18,0.04063L14.16,0.04063L14.13,0.04688L13.38,0.1594L13.35,0.1625L13.32,0.1719L12.61,0.3563L12.58,0.3625L12.55,0.3719L11.86,0.625L11.83,0.6344L11.81,0.6469L11.15,0.9625L11.13,0.975L11.1,0.9875L10.48,1.363L10.46,1.378L10.43,1.397L9.859,1.825L9.834,1.844L9.816,1.863L9.281,2.344L9.263,2.363L9.241,2.384L8.759,2.916L8.741,2.938L8.722,2.959L8.291,3.534L8.275,3.559L8.259,3.584L7.884,4.2L7.869,4.225L7.856,4.25L7.541,4.903L7.528,4.931L7.519,4.959L7.266,5.647L7.256,5.672L7.247,5.703L7.063,6.419L7.056,6.447L7.05,6.478L6.938,7.219L6.934,7.25L6.931,7.281L6.894,8.044L6.891,8.075L6.894,8.106L6.931,8.869L6.934,8.9L6.938,8.931L7.05,9.672L7.056,9.703L7.063,9.731L7.247,10.45L7.256,10.48L7.266,10.5L7.519,11.19L7.528,11.22L7.541,11.25L7.856,11.9L7.869,11.93L7.884,11.95L8.259,12.57L8.275,12.59L8.291,12.62L8.722,13.19L8.741,13.21L8.759,13.23L9.241,13.77L9.263,13.79L9.281,13.81L9.816,14.29L9.834,14.31L9.859,14.33L10.43,14.75L10.46,14.77L10.48,14.79L11.1,15.16L11.13,15.18L11.15,15.19L11.81,15.5L11.83,15.52L11.86,15.53L11.2,15.74L11.17,15.75L11.13,15.77L9.994,16.29L9.966,16.3L9.938,16.32L8.847,16.97L8.822,16.99L8.797,17L7.763,17.77L7.741,17.79L7.719,17.81L6.75,18.68L6.731,18.7L6.713,18.72L5.813,19.68L5.797,19.71L5.778,19.73L4.959,20.78L4.944,20.8L4.931,20.82L4.197,21.94L4.181,21.97L4.169,21.99L3.528,23.18L3.516,23.2L3.506,23.22L2.966,24.47L2.956,24.49L2.947,24.52L2.513,25.8L2.506,25.83L2.5,25.85L2.181,27.17L2.175,27.19L2.169,27.22L1.975,28.56L1.969,28.59L1.969,28.62L1.9,29.97L1.869,30.6L2.5,30.6L14.5,30.6L14.5,29.4L3.131,29.4L3.166,28.71L3.353,27.43L3.659,26.16L4.075,24.92L4.597,23.73L5.216,22.58L5.922,21.49L6.709,20.48L7.572,19.55L8.503,18.72L9.488,17.99L10.53,17.37L11.61,16.87L12.72,16.5L13.86,16.28L15.03,16.2L16.19,16.28L17.33,16.5L18.44,16.87L19.52,17.37L20.53,17.98L20.87,17.42L21.23,17L21.22,16.99L21.19,16.97L20.11,16.32L20.08,16.3L20.05,16.29L18.92,15.77L18.88,15.75L18.85,15.74L18.15,15.51L18.16,15.5L18.81,15.19L18.84,15.18L18.86,15.16L19.48,14.79L19.5,14.77L19.53,14.75L20.1,14.33L20.13,14.31L20.15,14.29L20.68,13.81L20.7,13.78L20.72,13.77L21.2,13.23L21.22,13.21L21.24,13.19L21.67,12.61L21.69,12.59L21.7,12.57L22.08,11.95L22.09,11.93L22.11,11.9L22.42,11.24L22.43,11.22L22.44,11.19L22.7,10.5L22.71,10.48L22.72,10.45L22.9,9.731L22.91,9.703L22.91,9.672L23.03,8.931L23.03,8.9L23.03,8.869L23.07,8.106L23.07,8.075L23.07,8.044L23.03,7.281L23.03,7.25L23.03,7.219L22.91,6.478L22.91,6.447L22.9,6.419L22.72,5.703L22.71,5.672L22.7,5.647L22.44,4.959L22.43,4.931L22.42,4.903L22.11,4.25L22.09,4.225L22.08,4.2L21.7,3.584L21.69,3.559L21.67,3.534L21.24,2.959L21.22,2.938L21.2,2.916L20.72,2.384L20.7,2.363L20.68,2.344L20.15,1.863L20.13,1.844L20.1,1.825L19.53,1.397L19.5,1.378L19.48,1.363L18.86,0.9875L18.84,0.975L18.81,0.9625L18.16,0.6469L18.13,0.6344L18.1,0.625L17.41,0.3719L17.38,0.3625L17.36,0.3563L16.64,0.1719L16.61,0.1625L16.58,0.1594L15.84,0.04688L15.81,0.04063L15.78,0.04063L15.01,0L14.98,-0L14.95,0M15.69,1.238L16.37,1.341L17.03,1.509L17.66,1.741L18.27,2.031L18.83,2.375L19.36,2.772L19.85,3.216L20.3,3.703L20.69,4.231L21.04,4.8L21.33,5.4L21.56,6.031L21.73,6.688L21.83,7.372L21.87,8.075L21.83,8.778L21.73,9.459L21.56,10.12L21.33,10.75L21.04,11.35L20.69,11.92L20.3,12.45L19.85,12.93L19.36,13.38L18.83,13.78L18.27,14.12L17.66,14.41L17.03,14.64L16.37,14.81L15.69,14.91L14.98,14.95L14.28,14.91L13.59,14.81L12.93,14.64L12.3,14.41L11.7,14.12L11.13,13.78L10.6,13.38L10.11,12.93L9.666,12.45L9.269,11.92L8.925,11.35L8.634,10.75L8.403,10.12L8.231,9.463L8.128,8.778L8.094,8.075L8.128,7.372L8.231,6.688L8.403,6.031L8.634,5.4L8.925,4.8L9.269,4.231L9.666,3.703L10.11,3.216L10.6,2.772L11.13,2.375L11.7,2.031L12.3,1.741L12.93,1.509L13.59,1.341L14.28,1.238L14.98,1.2z" fill="#228BCB"/>
    </g>
    <g id="overlay">
      <path d="M25.903,16.54c-2.244,0.278,-4.031,2.061,-4.285,4.288c-0.099,0.868,0.033,1.696,0.342,2.434c-1.398,1.381,-5.369,5.345,-5.369,5.345c-0.059,0.059,-0.092,0.138,-0.092,0.221V31.5h3v-2h2v-1.572l1.278,-1.281l0.233,0.245c0.122,0.122,0.314,0.125,0.44,0.007c0,0,0.737,-0.744,1.057,-1.042c0.713,0.318,1.516,0.474,2.36,0.421c2.418,-0.151,4.4,-2.042,4.617,-4.434C31.767,18.726,29.083,16.146,25.903,16.54zM27.637,21.585c-0.719,0,-1.302,-0.582,-1.302,-1.299c0,-0.717,0.583,-1.299,1.302,-1.299c0.719,0,1.302,0.582,1.302,1.299C28.939,21.003,28.356,21.585,27.637,21.585z" fill="#FFFFFF" stroke="#ED8730" stroke-width="1" stroke-miterlimit="1"/>
    </g>
  </g>
</svg>
